<svg width="50" height="52" viewBox="0 0 50 52" fill="none" xmlns="http://www.w3.org/2000/svg">
<path d="M46.3415 0C45.2646 0 44.3049 0.369673 43.6341 0.945455H6.36586C5.69634 0.369673 4.73537 0 3.65854 0C1.64146 0 0 1.27258 0 2.83636C0 3.6712 0.476829 4.41527 1.21951 4.93527V51.0545C1.21951 51.5774 1.76463 52 2.43902 52H47.561C48.2354 52 48.7805 51.5774 48.7805 51.0545V4.93527C49.5232 4.41622 50 3.6712 50 2.83636C50 1.27258 48.3585 0 46.3415 0ZM46.3415 1.89091C47.0146 1.89091 47.561 2.31447 47.561 2.83636C47.561 3.35825 47.0146 3.78182 46.3415 3.78182C45.6683 3.78182 45.122 3.35825 45.122 2.83636C45.122 2.31447 45.6683 1.89091 46.3415 1.89091ZM3.65854 1.89091C4.33171 1.89091 4.87805 2.31447 4.87805 2.83636C4.87805 3.35825 4.33171 3.78182 3.65854 3.78182C2.98537 3.78182 2.43902 3.35825 2.43902 2.83636C2.43902 2.31447 2.98537 1.89091 3.65854 1.89091ZM46.3415 50.1091H3.65854V5.67273C5.67561 5.67273 7.31707 4.40015 7.31707 2.83636H42.6829C42.6829 4.40015 44.3244 5.67273 46.3415 5.67273V50.1091Z" fill="#363434"/>
<path d="M41.8387 14H8.16129C7.5191 14 7 14.447 7 15C7 15.553 7.5191 16 8.16129 16H41.8387C42.4809 16 43 15.553 43 15C43 14.447 42.4809 14 41.8387 14Z" fill="#363434"/>
<path d="M41.8387 19H8.16129C7.5191 19 7 19.447 7 20C7 20.553 7.5191 21 8.16129 21H41.8387C42.4809 21 43 20.553 43 20C43 19.447 42.4809 19 41.8387 19Z" fill="#363434"/>
<path d="M41.8387 24H8.16129C7.5191 24 7 24.447 7 25C7 25.553 7.5191 26 8.16129 26H41.8387C42.4809 26 43 25.553 43 25C43 24.447 42.4809 24 41.8387 24Z" fill="#363434"/>
<path d="M41.8387 29H8.16129C7.5191 29 7 29.447 7 30C7 30.553 7.5191 31 8.16129 31H41.8387C42.4809 31 43 30.553 43 30C43 29.447 42.4809 29 41.8387 29Z" fill="#363434"/>
<path d="M41.8387 34H8.16129C7.5191 34 7 34.447 7 35C7 35.553 7.5191 36 8.16129 36H41.8387C42.4809 36 43 35.553 43 35C43 34.447 42.4809 34 41.8387 34Z" fill="#363434"/>
<path d="M41.8387 39H8.16129C7.5191 39 7 39.447 7 40C7 40.553 7.5191 41 8.16129 41H41.8387C42.4809 41 43 40.553 43 40C43 39.447 42.4809 39 41.8387 39Z" fill="#363434"/>
</svg>
