<svg width="29" height="31" viewBox="0 0 29 31" fill="none" xmlns="http://www.w3.org/2000/svg">
<g clip-path="url(#clip0_55715_7995)">
<path d="M3.62478 1.9375C3.14408 1.9375 2.68306 2.14163 2.34315 2.50498C2.00324 2.86833 1.81228 3.36114 1.81228 3.875V19.375C1.81228 19.8889 2.00324 20.3817 2.34315 20.745C2.68306 21.1084 3.14408 21.3125 3.62478 21.3125H20.9994C21.9607 21.3127 22.8826 21.7211 23.5623 22.4479L27.1873 26.3229V3.875C27.1873 3.36114 26.9963 2.86833 26.6564 2.50498C26.3165 2.14163 25.8555 1.9375 25.3748 1.9375H3.62478ZM25.3748 0C26.3362 0 27.2582 0.408258 27.938 1.13496C28.6179 1.86166 28.9998 2.84729 28.9998 3.875V28.6614C28.9997 28.8531 28.9465 29.0405 28.8468 29.1998C28.7471 29.3592 30.4214 28.6809 28.4397 29.5565C28.274 29.6297 28.0917 29.6488 27.9158 29.6112C27.74 29.5736 27.5786 29.4811 27.4519 29.3454L22.2808 23.8177C21.941 23.4543 21.4801 23.2501 20.9994 23.25H3.62478C2.66338 23.25 1.74134 22.8417 1.06152 22.115C0.381704 21.3883 -0.00021553 20.4027 -0.00021553 19.375V3.875C-0.00021553 2.84729 0.381704 1.86166 1.06152 1.13496C1.74134 0.408258 2.66338 0 3.62478 0L25.3748 0Z" fill="#4B4B4B"/>
<path d="M23.5625 6.78125C23.5625 6.52432 23.467 6.27792 23.2971 6.09624C23.1271 5.91456 22.8966 5.8125 22.6562 5.8125H6.34375C6.1034 5.8125 5.87289 5.91456 5.70293 6.09624C5.53298 6.27792 5.4375 6.52432 5.4375 6.78125C5.4375 7.03818 5.53298 7.28458 5.70293 7.46626C5.87289 7.64794 6.1034 7.75 6.34375 7.75H22.6562C22.8966 7.75 23.1271 7.64794 23.2971 7.46626C23.467 7.28458 23.5625 7.03818 23.5625 6.78125ZM23.5625 11.625C23.5625 11.3681 23.467 11.1217 23.2971 10.94C23.1271 10.7583 22.8966 10.6562 22.6562 10.6562H6.34375C6.1034 10.6562 5.87289 10.7583 5.70293 10.94C5.53298 11.1217 5.4375 11.3681 5.4375 11.625C5.4375 11.8819 5.53298 12.1283 5.70293 12.31C5.87289 12.4917 6.1034 12.5938 6.34375 12.5938H22.6562C22.8966 12.5938 23.1271 12.4917 23.2971 12.31C23.467 12.1283 23.5625 11.8819 23.5625 11.625ZM23.5625 16.4688C23.5625 16.2118 23.467 15.9654 23.2971 15.7837C23.1271 15.6021 22.8966 15.5 22.6562 15.5H13.5938C13.3534 15.5 13.1229 15.6021 12.9529 15.7837C12.783 15.9654 12.6875 16.2118 12.6875 16.4688C12.6875 16.7257 12.783 16.9721 12.9529 17.1538C13.1229 17.3354 13.3534 17.4375 13.5938 17.4375H22.6562C22.8966 17.4375 23.1271 17.3354 23.2971 17.1538C23.467 16.9721 23.5625 16.7257 23.5625 16.4688Z" fill="#4B4B4B"/>
</g>
<defs>
<clipPath id="clip0_55715_7995">
<rect width="29" height="31" fill="white" transform="matrix(-1 0 0 1 29 0)"/>
</clipPath>
</defs>
</svg>
