<svg width="25" height="21" viewBox="0 0 25 21" fill="none" xmlns="http://www.w3.org/2000/svg">
<path d="M12.5 21C12.5 21 0 14.3182 0 6.20455C0 4.77021 0.520618 3.38018 1.47328 2.27094C2.42593 1.16171 3.75178 0.401795 5.22525 0.120498C6.69871 -0.160799 8.22876 0.0538945 9.55508 0.728052C10.8814 1.40221 11.9221 2.49418 12.5 3.81819C13.0779 2.49418 14.1186 1.40221 15.4449 0.728052C16.7712 0.0538945 18.3013 -0.160799 19.7748 0.120498C21.2482 0.401795 22.5741 1.16171 23.5267 2.27094C24.4794 3.38018 25 4.77021 25 6.20455C25 14.3182 12.5 21 12.5 21Z" fill="#2C39B5"/>
</svg>
