<svg width="27" height="23" viewBox="0 0 27 23" fill="none" xmlns="http://www.w3.org/2000/svg">
<path d="M13.5 22C13.5 22 1 15.3182 1 7.20455C1 5.77021 1.52062 4.38018 2.47328 3.27094C3.42593 2.16171 4.75178 1.40179 6.22525 1.1205C7.69871 0.839201 9.22876 1.05389 10.5551 1.72805C11.8814 2.40221 12.9221 3.49418 13.5 4.81819C14.0779 3.49418 15.1186 2.40221 16.4449 1.72805C17.7712 1.05389 19.3013 0.839201 20.7748 1.1205C22.2482 1.40179 23.5741 2.16171 24.5267 3.27094C25.4794 4.38018 26 5.77021 26 7.20455C26 15.3182 13.5 22 13.5 22Z" stroke="#2C39B5" stroke-width="2" stroke-linecap="round" stroke-linejoin="round"/>
</svg>
