<svg width="40" height="40" viewBox="0 0 40 40" fill="none" xmlns="http://www.w3.org/2000/svg">
<circle cx="20" cy="20" r="20" fill="#2C39B5"/>
<path fill-rule="evenodd" clip-rule="evenodd" d="M23.7 21.8375L30.8625 29L29 30.8625L21.8375 23.7C20.5 24.6625 18.8875 25.25 17.125 25.25C12.6375 25.25 9 21.6125 9 17.125C9 12.6375 12.6375 9 17.125 9C21.6125 9 25.25 12.6375 25.25 17.125C25.25 18.8875 24.6625 20.5 23.7 21.8375ZM17.125 11.5C14.0125 11.5 11.5 14.0125 11.5 17.125C11.5 20.2375 14.0125 22.75 17.125 22.75C20.2375 22.75 22.75 20.2375 22.75 17.125C22.75 14.0125 20.2375 11.5 17.125 11.5Z" fill="white"/>
</svg>
