<svg width="18" height="16" viewBox="0 0 18 16" fill="none" xmlns="http://www.w3.org/2000/svg">
<path fill-rule="evenodd" clip-rule="evenodd" d="M11.9701 9.05103L17.5284 13.9527L16.0831 15.2273L10.5248 10.3256C9.48684 10.9843 8.23549 11.3864 6.86774 11.3864C3.38531 11.3864 0.5625 8.89705 0.5625 5.82601C0.5625 2.75496 3.38531 0.265625 6.86774 0.265625C10.3502 0.265625 13.173 2.75496 13.173 5.82601C13.173 7.03218 12.7171 8.1357 11.9701 9.05103ZM6.86774 1.97651C4.45235 1.97651 2.50257 3.69595 2.50257 5.82601C2.50257 7.95606 4.45235 9.6755 6.86774 9.6755C9.28313 9.6755 11.2329 7.95606 11.2329 5.82601C11.2329 3.69595 9.28313 1.97651 6.86774 1.97651Z" fill="#79747E"/>
</svg>
