<svg width="319" height="176" viewBox="0 0 319 176" fill="none" xmlns="http://www.w3.org/2000/svg">
<path d="M50.9805 64.9844L46 70.8438C51.7943 71.3646 56.9701 72.0807 61.5273 72.9922C66.0846 73.8385 70.2839 74.8151 74.125 75.9219C78.0312 76.9635 81.4492 78.0703 84.3789 79.2422C94.6654 83.5391 99.8086 89.5286 99.8086 97.2109C99.8086 101.898 97.6602 106.488 93.3633 110.98C89.0664 115.473 83.4674 119.477 76.5664 122.992C69.7305 126.508 62.6667 129.242 55.375 131.195C48.1484 133.214 41.5729 134.223 35.6484 134.223C25.7526 134.223 18.0378 132.4 12.5039 128.754C6.97005 125.043 4.20312 119.997 4.20312 113.617C4.20312 109.19 5.89583 103.982 9.28125 97.9922C12.6667 92.0026 17.9076 84.5482 25.0039 75.6289C19.6654 75.3685 15.8893 74.5872 13.6758 73.2852C11.4622 71.918 10.3555 70.0299 10.3555 67.6211C10.3555 66.1237 10.7786 64.9844 11.625 64.2031C12.4714 63.4219 13.6107 62.8685 15.043 62.543C16.4753 62.1523 19.2096 61.6966 23.2461 61.1758C27.3477 60.6549 32.5885 60.0039 38.9688 59.2227C46.0651 50.4987 52.4128 43.9557 58.0117 39.5938C63.6758 35.1667 69.7305 32.6276 76.1758 31.9766C76.6966 31.9115 77.25 31.8789 77.8359 31.8789C78.487 31.8789 78.8125 32.0417 78.8125 32.3672C78.8125 32.7578 78.0638 33.7995 76.5664 35.4922C75.1341 37.1849 72.7578 39.8867 69.4375 43.5977C66.1823 47.3086 62.3086 51.7031 57.8164 56.7812C70.056 55.1536 80.0495 53.2982 87.7969 51.2148C95.6094 49.0664 101.501 46.5273 105.473 43.5977C109.444 40.668 111.43 37.4128 111.43 33.832C111.43 29.4701 109.314 26.3125 105.082 24.3594C100.85 22.4062 94.3724 21.4297 85.6484 21.4297C80.8307 21.4297 75.2969 21.918 69.0469 22.8945C62.862 23.8711 57.2305 24.9779 52.1523 26.2148C47.1393 27.4518 42.6471 28.7865 38.6758 30.2188C34.7695 31.5859 32.8164 32.5951 32.8164 33.2461C32.8164 33.4414 33.0117 33.6367 33.4023 33.832C36.5924 35.0039 38.1875 35.9805 38.1875 36.7617C38.1875 37.8034 33.3047 39.8216 23.5391 42.8164C13.7734 45.7461 7.19792 47.2109 3.8125 47.2109C1.40365 47.2109 0.199219 46.0065 0.199219 43.5977C0.199219 40.7331 2.80339 35.5898 8.01172 28.168C13.2852 20.681 18.0703 15.8958 22.3672 13.8125C23.8646 13.0964 27.3477 11.957 32.8164 10.3945C38.2852 8.83203 44.2747 7.33464 50.7852 5.90234C57.3607 4.47005 64.0339 3.26562 70.8047 2.28906C77.5755 1.3125 83.5651 0.824219 88.7734 0.824219C101.078 0.824219 110.323 3.03776 116.508 7.46484C122.693 11.8268 125.785 17.3281 125.785 23.9688C125.785 28.4609 124.353 32.7904 121.488 36.957C118.689 41.1237 114.294 45.0625 108.305 48.7734C102.315 52.4844 94.5026 55.7396 84.8672 58.5391C75.2969 61.3385 64.0013 63.487 50.9805 64.9844ZM40.6289 77.582C37.2435 81.6185 34.2161 85.1992 31.5469 88.3242C28.9427 91.3841 27.0547 93.8906 25.8828 95.8438C24.776 97.7318 24.2227 99.6523 24.2227 101.605C24.2227 104.73 25.8177 107.53 29.0078 110.004C32.263 112.413 36.918 113.617 42.9727 113.617C48.5716 113.617 54.5286 112.641 60.8438 110.688C67.224 108.669 72.5625 106.065 76.8594 102.875C81.2214 99.6849 83.4023 96.4622 83.4023 93.207C83.4023 90.4076 81.8073 88.0964 78.6172 86.2734C75.4271 84.4505 70.5768 82.8555 64.0664 81.4883C57.556 80.056 49.7435 78.7539 40.6289 77.582ZM147.953 56.5859C146.326 56.5859 144.763 55.9674 143.266 54.7305C141.833 53.4935 141.117 51.931 141.117 50.043C141.117 47.1784 142.484 43.9883 145.219 40.4727C147.953 36.957 150.785 35.1992 153.715 35.1992C155.668 35.1992 157.296 35.8177 158.598 37.0547C159.9 38.2266 160.551 39.9518 160.551 42.2305C160.551 45.0299 159.216 48.1224 156.547 51.5078C153.878 54.8932 151.013 56.5859 147.953 56.5859ZM154.594 100.238V107.367C148.279 115.505 142.387 121.658 136.918 125.824C131.449 129.926 126.794 131.977 122.953 131.977C117.615 131.977 113.643 129.177 111.039 123.578C108.435 117.979 107.133 111.859 107.133 105.219C107.133 102.68 107.393 100.271 107.914 97.9922C108.435 95.6484 109.053 93.7279 109.77 92.2305C110.486 90.7331 111.82 88.3893 113.773 85.1992C123.018 70.8112 131.482 63.6172 139.164 63.6172C143.135 63.6172 145.121 65.1471 145.121 68.207C145.121 70.2904 143.819 73.5456 141.215 77.9727C138.676 82.3997 136.397 85.5573 134.379 87.4453C128.715 92.9141 125.004 96.7227 123.246 98.8711C121.553 101.02 120.707 103.461 120.707 106.195C120.707 108.539 121.586 110.492 123.344 112.055C125.102 113.617 127.38 114.398 130.18 114.398C133.24 114.398 136.592 113.292 140.238 111.078C143.949 108.799 148.734 105.186 154.594 100.238ZM200.492 99.1641V106.391C186.885 124.424 175.818 133.441 167.289 133.441C162.667 133.441 159.021 130.935 156.352 125.922C153.747 120.844 152.445 114.203 152.445 106C152.445 99.3594 154.008 91.4818 157.133 82.3672C160.258 73.1875 164.424 63.9102 169.633 54.5352C174.906 45.0951 180.342 36.8919 185.941 29.9258C191.605 22.8945 196.846 17.9792 201.664 15.1797C203.617 14.0078 205.147 13.4219 206.254 13.4219C207.621 13.4219 208.533 14.0404 208.988 15.2773C209.444 16.4492 209.672 18.5 209.672 21.4297C209.672 30.4792 205.993 41.612 198.637 54.8281C191.28 67.9792 181.026 81.4232 167.875 95.1602C167.224 98.5456 166.898 101.15 166.898 102.973C166.898 107.139 167.777 110.525 169.535 113.129C171.358 115.733 173.865 117.035 177.055 117.035C178.682 117.035 180.44 116.417 182.328 115.18C184.216 113.878 186.202 112.283 188.285 110.395C190.368 108.507 194.438 104.763 200.492 99.1641ZM171.293 81.5859C174.678 78.2656 177.934 74.4896 181.059 70.2578C184.249 66.026 187.243 61.5013 190.043 56.6836C192.842 51.8659 195.023 47.5365 196.586 43.6953C198.214 39.8542 199.027 36.957 199.027 35.0039C199.027 33.5065 198.507 32.7578 197.465 32.7578C197.074 32.7578 196.326 33.1159 195.219 33.832C191.247 37.0872 186.788 43.4674 181.84 52.9727C176.892 62.4128 173.376 71.9505 171.293 81.5859ZM246.391 99.1641V106.391C232.784 124.424 221.716 133.441 213.188 133.441C208.565 133.441 204.919 130.935 202.25 125.922C199.646 120.844 198.344 114.203 198.344 106C198.344 99.3594 199.906 91.4818 203.031 82.3672C206.156 73.1875 210.323 63.9102 215.531 54.5352C220.805 45.0951 226.241 36.8919 231.84 29.9258C237.504 22.8945 242.745 17.9792 247.562 15.1797C249.516 14.0078 251.046 13.4219 252.152 13.4219C253.52 13.4219 254.431 14.0404 254.887 15.2773C255.342 16.4492 255.57 18.5 255.57 21.4297C255.57 30.4792 251.892 41.612 244.535 54.8281C237.178 67.9792 226.924 81.4232 213.773 95.1602C213.122 98.5456 212.797 101.15 212.797 102.973C212.797 107.139 213.676 110.525 215.434 113.129C217.257 115.733 219.763 117.035 222.953 117.035C224.581 117.035 226.339 116.417 228.227 115.18C230.115 113.878 232.1 112.283 234.184 110.395C236.267 108.507 240.336 104.763 246.391 99.1641ZM217.191 81.5859C220.577 78.2656 223.832 74.4896 226.957 70.2578C230.147 66.026 233.142 61.5013 235.941 56.6836C238.741 51.8659 240.922 47.5365 242.484 43.6953C244.112 39.8542 244.926 36.957 244.926 35.0039C244.926 33.5065 244.405 32.7578 243.363 32.7578C242.973 32.7578 242.224 33.1159 241.117 33.832C237.146 37.0872 232.686 43.4674 227.738 52.9727C222.79 62.4128 219.275 71.9505 217.191 81.5859ZM287.895 104.047L270.512 118.793C262.243 126.02 256.71 129.633 253.91 129.633C251.371 129.633 248.702 126.736 245.902 120.941C243.103 115.082 241.703 109.971 241.703 105.609C241.703 101.898 242.257 98.7734 243.363 96.2344C244.535 93.6302 246.521 90.2773 249.32 86.1758C253.292 80.6419 257.1 75.9544 260.746 72.1133C264.392 68.2721 267.615 65.3099 270.414 63.2266C273.214 61.0781 275.167 60.0039 276.273 60.0039C278.031 60.0039 279.724 60.9154 281.352 62.7383C283.044 64.5612 283.891 66.4492 283.891 68.4023C283.891 69.6393 282.979 71.625 281.156 74.3594C279.398 77.0938 276.566 80.5768 272.66 84.8086C268.819 88.9753 263.448 93.9883 256.547 99.8477L254.691 105.219C254.171 106.26 253.91 107.172 253.91 107.953C253.91 109.711 254.789 110.59 256.547 110.59C258.37 110.59 262.634 108.279 269.34 103.656C276.111 99.0339 283.435 92.8164 291.312 85.0039C294.372 81.944 296.911 79.2422 298.93 76.8984C300.948 74.5547 302.771 72.3737 304.398 70.3555C306.026 68.2721 307.361 66.7096 308.402 65.668C309.509 64.6263 310.486 64.0729 311.332 64.0078C312.96 63.8125 314.229 64.4961 315.141 66.0586C316.052 67.6211 316.508 69.9323 316.508 72.9922C316.508 74.75 315.727 76.9635 314.164 79.6328C312.602 82.237 309.672 86.7292 305.375 93.1094C301.078 99.4245 296.781 106 292.484 112.836C288.253 119.607 283.923 127.257 279.496 135.785C279.691 135.59 281.677 133.637 285.453 129.926C289.294 126.215 293.331 122.341 297.562 118.305C301.794 114.268 305.277 111.046 308.012 108.637C310.746 106.163 314.164 103.298 318.266 100.043V106.586C309.477 116.026 301.501 124.978 294.34 133.441C287.243 141.905 281.742 148.676 277.836 153.754C273.995 158.832 271.749 161.794 271.098 162.641C269.34 164.919 267.745 167.035 266.312 168.988C264.945 171.007 263.773 172.536 262.797 173.578C261.885 174.685 261.137 175.238 260.551 175.238C259.184 175.238 257.947 173.871 256.84 171.137C255.798 168.467 255.277 166.091 255.277 164.008C255.277 162.12 255.635 160.46 256.352 159.027C261.039 148.48 271.553 130.154 287.895 104.047Z" fill="black"/>
</svg>
