<svg width="22" height="20" viewBox="0 0 22 20" fill="none" xmlns="http://www.w3.org/2000/svg">
<path d="M11 19C11 19 1 13.2727 1 6.31819C1 5.08875 1.41649 3.89729 2.17862 2.94652C2.94075 1.99575 4.00143 1.3444 5.1802 1.10328C6.35897 0.862172 7.58301 1.0462 8.64406 1.62404C9.70512 2.20189 10.5376 3.13787 11 4.27273C11.4624 3.13787 12.2949 2.20189 13.3559 1.62404C14.417 1.0462 15.641 0.862172 16.8198 1.10328C17.9986 1.3444 19.0593 1.99575 19.8214 2.94652C20.5835 3.89729 21 5.08875 21 6.31819C21 13.2727 11 19 11 19Z" fill="#2C39B5" stroke="#2C39B5" stroke-linecap="round" stroke-linejoin="round"/>
</svg>
