<svg width="181" height="180" viewBox="0 0 181 180" fill="none" xmlns="http://www.w3.org/2000/svg">
<rect x="1.33789" y="0.5" width="179" height="179" rx="4.5" fill="#F3F3F3" stroke="#2C39B5"/>
<path d="M62.1455 100.314H63.6395V116.622H62.1455V100.314ZM55.0535 101.574C57.4655 101.574 59.1935 103.788 59.1935 107.244C59.1935 110.718 57.4655 112.932 55.0535 112.932C52.6595 112.932 50.9315 110.718 50.9315 107.244C50.9315 103.788 52.6595 101.574 55.0535 101.574ZM55.0535 102.924C53.4695 102.924 52.3535 104.616 52.3535 107.244C52.3535 109.89 53.4695 111.618 55.0535 111.618C56.6555 111.618 57.7535 109.89 57.7535 107.244C57.7535 104.616 56.6555 102.924 55.0535 102.924ZM67.8141 101.916H75.3021V112.518H67.8141V101.916ZM73.8441 103.122H69.2721V111.312H73.8441V103.122ZM78.7041 100.314H80.1981V116.622H78.7041V100.314ZM87.7567 102.654H88.9627V105.3C88.9627 108.738 86.8927 112.194 84.3007 113.472L83.4367 112.284C85.7947 111.168 87.7567 108.108 87.7567 105.3V102.654ZM88.0447 102.654H89.2507V105.3C89.2507 108.054 91.2127 110.862 93.6067 111.888L92.7607 113.076C90.1327 111.852 88.0447 108.684 88.0447 105.3V102.654ZM83.9767 101.988H93.0667V103.248H83.9767V101.988ZM95.2627 100.332H96.7567V116.604H95.2627V100.332ZM100.013 108.072H114.719V109.314H100.013V108.072ZM101.867 105.318H113.009V106.524H101.867V105.318ZM101.867 100.98H112.883V102.204H103.343V105.894H101.867V100.98ZM107.339 110.718C110.813 110.718 112.919 111.78 112.919 113.652C112.919 115.524 110.813 116.568 107.339 116.568C103.865 116.568 101.759 115.524 101.759 113.652C101.759 111.78 103.865 110.718 107.339 110.718ZM107.339 111.87C104.801 111.87 103.271 112.518 103.271 113.652C103.271 114.768 104.801 115.398 107.339 115.398C109.895 115.398 111.407 114.768 111.407 113.652C111.407 112.518 109.895 111.87 107.339 111.87ZM116.554 109.278H131.314V110.502H116.554V109.278ZM118.426 100.746H129.406V104.688H119.938V106.884H118.462V103.59H127.948V101.916H118.426V100.746ZM118.462 106.398H129.766V107.568H118.462V106.398ZM123.178 107.01H124.672V109.89H123.178V107.01ZM118.192 111.744H129.514V116.46H128.02V112.968H118.192V111.744Z" fill="#777777"/>
<path fill-rule="evenodd" clip-rule="evenodd" d="M90.4375 60.4849C86.5709 60.4849 83.4375 63.9332 83.4375 68.1886C83.4375 72.4429 86.5709 75.8923 90.4375 75.8923C94.3033 75.8923 97.4375 72.4429 97.4375 68.1886C97.4375 63.9342 94.3033 60.4849 90.4375 60.4849ZM94.4231 71.9489C92.5366 74.3718 89.223 74.652 87.0215 72.5749C84.8191 70.4987 84.5654 66.851 86.4528 64.4292C88.3384 62.0054 91.6529 61.7261 93.8544 63.8032C96.055 65.8784 96.3096 69.5271 94.4231 71.9489Z" fill="#777777"/>
<path fill-rule="evenodd" clip-rule="evenodd" d="M90.4375 64.3369C88.5046 64.3369 86.9384 66.0616 86.9375 68.1878V68.1897C86.9375 68.4545 87.1335 68.6712 87.375 68.6712C87.6165 68.6712 87.8125 68.4545 87.8125 68.1897V68.1878C87.8134 66.5931 88.9876 65.2999 90.4375 65.2999C90.679 65.2999 90.875 65.0842 90.875 64.8184C90.875 64.5526 90.679 64.3369 90.4375 64.3369Z" fill="#777777"/>
<path fill-rule="evenodd" clip-rule="evenodd" d="M102.243 59.5614L98.4508 58.8652L97.2494 55.5583C96.8477 54.4558 95.8905 53.7432 94.8125 53.7432H86.0625C84.9845 53.7432 84.0272 54.4558 83.6247 55.5593L82.4243 58.8652L78.6329 59.5614C77.3606 59.7935 76.4375 60.9914 76.4375 62.4098V76.8543C76.4375 78.447 77.6152 79.7432 79.0625 79.7432H101.812C103.26 79.7432 104.438 78.447 104.438 76.8543V62.4098C104.438 60.9914 103.514 59.7935 102.243 59.5614ZM102.688 76.8543C102.688 77.3868 102.296 77.8172 101.812 77.8172H79.0625C78.5786 77.8172 78.1875 77.3868 78.1875 76.8543V62.4098C78.1875 61.9389 78.4973 61.5374 78.919 61.4603L83.6825 60.5869L85.2496 56.2748C85.3835 55.9098 85.7046 55.6691 86.0625 55.6691H94.8125C95.1695 55.6691 95.4906 55.9089 95.6245 56.2748L97.1916 60.5869L101.956 61.4603C102.378 61.5374 102.688 61.9389 102.688 62.4098V76.8543Z" fill="#777777"/>
</svg>
