<svg width="1664" height="1110" viewBox="0 0 1664 1110" fill="none" xmlns="http://www.w3.org/2000/svg">
<path d="M324.723 509.434L303.556 534.336C328.182 536.549 350.179 539.593 369.548 543.467C388.916 547.064 406.763 551.214 423.088 555.918C439.689 560.345 454.216 565.049 466.667 570.029C510.384 588.291 532.243 613.747 532.243 646.396C532.243 666.318 523.112 685.825 504.85 704.917C486.589 724.009 462.793 741.025 433.464 755.967C404.411 770.908 374.39 782.529 343.4 790.83C312.687 799.408 284.741 803.696 259.562 803.696C217.505 803.696 184.717 795.949 161.198 780.454C137.679 764.683 125.92 743.239 125.92 716.123C125.92 697.308 133.114 675.173 147.502 649.717C161.89 624.261 184.163 592.58 214.323 554.673C191.634 553.566 175.586 550.246 166.178 544.712C156.771 538.901 152.067 530.877 152.067 520.64C152.067 514.276 153.866 509.434 157.463 506.113C161.06 502.793 165.902 500.441 171.989 499.058C178.076 497.397 189.697 495.461 206.852 493.247C224.284 491.034 246.558 488.267 273.674 484.946C303.833 447.869 330.811 420.062 354.606 401.523C378.678 382.708 404.411 371.917 431.803 369.15C434.017 368.874 436.369 368.735 438.859 368.735C441.626 368.735 443.01 369.427 443.01 370.811C443.01 372.471 439.828 376.898 433.464 384.092C427.376 391.286 417.277 402.769 403.166 418.54C389.331 434.312 372.868 452.988 353.776 474.57C405.794 467.653 448.267 459.767 481.193 450.913C514.396 441.782 539.437 430.991 556.315 418.54C573.193 406.089 581.633 392.254 581.633 377.036C581.633 358.498 572.64 345.078 554.655 336.777C536.67 328.477 509.139 324.326 472.062 324.326C451.587 324.326 428.068 326.401 401.506 330.552C375.22 334.702 351.286 339.406 329.704 344.663C308.399 349.92 289.307 355.592 272.428 361.68C255.827 367.49 247.526 371.779 247.526 374.546C247.526 375.376 248.356 376.206 250.016 377.036C263.574 382.017 270.353 386.167 270.353 389.487C270.353 393.914 249.601 402.492 208.097 415.22C166.594 427.671 138.648 433.896 124.26 433.896C114.022 433.896 108.903 428.778 108.903 418.54C108.903 406.366 119.971 384.507 142.106 352.964C164.518 321.144 184.855 300.807 203.117 291.953C209.481 288.91 224.284 284.067 247.526 277.427C270.768 270.786 296.224 264.422 323.893 258.335C351.839 252.248 380.2 247.129 408.976 242.979C437.752 238.828 463.208 236.753 485.344 236.753C537.638 236.753 576.929 246.16 603.215 264.976C629.5 283.514 642.643 306.895 642.643 335.117C642.643 354.209 636.556 372.609 624.382 390.317C612.484 408.026 593.807 424.766 568.351 440.537C542.896 456.309 509.692 470.143 468.742 482.041C428.068 493.939 380.062 503.07 324.723 509.434ZM280.729 562.974C266.341 580.129 253.475 595.347 242.131 608.628C231.063 621.632 223.039 632.285 218.058 640.586C213.355 648.61 211.003 656.772 211.003 665.073C211.003 678.354 217.782 690.252 231.34 700.767C245.174 711.004 264.958 716.123 290.69 716.123C314.486 716.123 339.803 711.973 366.642 703.672C393.758 695.094 416.447 684.027 434.709 670.469C453.247 656.911 462.516 643.215 462.516 629.38C462.516 617.482 455.737 607.66 442.179 599.912C428.622 592.165 408.008 585.386 380.339 579.575C352.669 573.488 319.466 567.954 280.729 562.974ZM939.357 473.74C932.44 473.74 925.799 471.112 919.435 465.854C913.348 460.597 910.304 453.957 910.304 445.933C910.304 433.758 916.115 420.2 927.736 405.259C939.357 390.317 951.393 382.847 963.844 382.847C972.145 382.847 979.063 385.475 984.596 390.732C990.13 395.713 992.897 403.045 992.897 412.729C992.897 424.627 987.225 437.77 975.881 452.158C964.536 466.546 952.362 473.74 939.357 473.74ZM967.58 659.263V689.561C940.741 724.147 915.7 750.295 892.458 768.003C869.216 785.435 849.432 794.15 833.107 794.15C810.418 794.15 793.54 782.253 782.472 758.457C771.405 734.661 765.871 708.652 765.871 680.43C765.871 669.639 766.978 659.401 769.191 649.717C771.405 639.756 774.033 631.593 777.077 625.229C780.121 618.866 785.793 608.905 794.094 595.347C833.384 534.198 869.354 503.623 902.004 503.623C918.882 503.623 927.321 510.125 927.321 523.13C927.321 531.984 921.787 545.819 910.719 564.634C899.928 583.449 890.244 596.868 881.667 604.893C857.594 628.135 841.823 644.321 834.352 653.452C827.158 662.583 823.561 672.959 823.561 684.58C823.561 694.541 827.297 702.842 834.767 709.482C842.238 716.123 851.922 719.443 863.82 719.443C876.825 719.443 891.074 714.74 906.569 705.332C922.341 695.648 942.677 680.291 967.58 659.263ZM1162.65 654.697V685.41C1104.82 762.054 1057.78 800.376 1021.53 800.376C1001.89 800.376 986.395 789.723 975.051 768.418C963.983 746.836 958.449 718.613 958.449 683.75C958.449 655.527 965.09 622.048 978.371 583.311C991.652 544.297 1009.36 504.868 1031.5 465.024C1053.91 424.904 1077.01 390.041 1100.81 360.435C1124.88 330.552 1147.15 309.661 1167.63 297.764C1175.93 292.783 1182.43 290.293 1187.14 290.293C1192.95 290.293 1196.82 292.922 1198.76 298.179C1200.69 303.159 1201.66 311.875 1201.66 324.326C1201.66 362.786 1186.03 410.101 1154.76 466.27C1123.5 522.161 1079.92 579.299 1024.03 637.681C1021.26 652.069 1019.87 663.136 1019.87 670.884C1019.87 688.592 1023.61 702.98 1031.08 714.048C1038.83 725.116 1049.48 730.649 1063.04 730.649C1069.96 730.649 1077.43 728.021 1085.45 722.764C1093.48 717.23 1101.91 710.451 1110.77 702.427C1119.62 694.403 1136.92 678.493 1162.65 654.697ZM1038.55 579.99C1052.94 565.879 1066.77 549.831 1080.06 531.846C1093.61 513.861 1106.34 494.631 1118.24 474.155C1130.14 453.68 1139.41 435.28 1146.05 418.955C1152.96 402.63 1156.42 390.317 1156.42 382.017C1156.42 375.653 1154.21 372.471 1149.78 372.471C1148.12 372.471 1144.94 373.993 1140.24 377.036C1123.36 390.871 1104.4 417.987 1083.38 458.384C1062.35 498.504 1047.41 539.04 1038.55 579.99ZM1357.72 654.697V685.41C1299.89 762.054 1252.85 800.376 1216.6 800.376C1196.96 800.376 1181.46 789.723 1170.12 768.418C1159.05 746.836 1153.52 718.613 1153.52 683.75C1153.52 655.527 1160.16 622.048 1173.44 583.311C1186.72 544.297 1204.43 504.868 1226.56 465.024C1248.98 424.904 1272.08 390.041 1295.88 360.435C1319.95 330.552 1342.22 309.661 1362.7 297.764C1371 292.783 1377.5 290.293 1382.2 290.293C1388.01 290.293 1391.89 292.922 1393.82 298.179C1395.76 303.159 1396.73 311.875 1396.73 324.326C1396.73 362.786 1381.1 410.101 1349.83 466.27C1318.56 522.161 1274.99 579.299 1219.09 637.681C1216.33 652.069 1214.94 663.136 1214.94 670.884C1214.94 688.592 1218.68 702.98 1226.15 714.048C1233.9 725.116 1244.55 730.649 1258.11 730.649C1265.02 730.649 1272.5 728.021 1280.52 722.764C1288.54 717.23 1296.98 710.451 1305.84 702.427C1314.69 694.403 1331.98 678.493 1357.72 654.697ZM1233.62 579.99C1248.01 565.879 1261.84 549.831 1275.12 531.846C1288.68 513.861 1301.41 494.631 1313.31 474.155C1325.21 453.68 1334.47 435.28 1341.11 418.955C1348.03 402.63 1351.49 390.317 1351.49 382.017C1351.49 375.653 1349.28 372.471 1344.85 372.471C1343.19 372.471 1340.01 373.993 1335.3 377.036C1318.43 390.871 1299.47 417.987 1278.44 458.384C1257.42 498.504 1242.47 539.04 1233.62 579.99ZM1534.11 675.449L1460.23 738.12C1425.09 768.833 1401.57 784.189 1389.67 784.189C1378.88 784.189 1367.54 771.877 1355.64 747.251C1343.74 722.349 1337.79 700.628 1337.79 682.09C1337.79 666.318 1340.15 653.037 1344.85 642.246C1349.83 631.178 1358.27 616.929 1370.17 599.497C1387.05 575.978 1403.23 556.056 1418.73 539.731C1434.22 523.407 1447.92 510.817 1459.82 501.963C1471.71 492.832 1480.01 488.267 1484.72 488.267C1492.19 488.267 1499.38 492.14 1506.3 499.888C1513.49 507.635 1517.09 515.659 1517.09 523.96C1517.09 529.217 1513.22 537.656 1505.47 549.277C1498 560.898 1485.96 575.701 1469.36 593.687C1453.04 611.395 1430.21 632.7 1400.88 657.603L1392.99 680.43C1390.78 684.857 1389.67 688.73 1389.67 692.051C1389.67 699.521 1393.41 703.257 1400.88 703.257C1408.63 703.257 1426.75 693.434 1455.25 673.789C1484.03 654.144 1515.15 627.72 1548.63 594.517C1561.64 581.512 1572.43 570.029 1581.01 560.068C1589.59 550.107 1597.33 540.838 1604.25 532.261C1611.17 523.407 1616.84 516.766 1621.27 512.339C1625.97 507.912 1630.12 505.56 1633.72 505.283C1640.63 504.453 1646.03 507.358 1649.9 513.999C1653.78 520.64 1655.71 530.462 1655.71 543.467C1655.71 550.938 1652.39 560.345 1645.75 571.689C1639.11 582.757 1626.66 601.849 1608.4 628.965C1590.14 655.804 1571.88 683.75 1553.61 712.803C1535.63 741.579 1517.23 774.09 1498.41 810.337C1499.24 809.507 1507.68 801.206 1523.73 785.435C1540.06 769.663 1557.21 753.2 1575.2 736.045C1593.18 718.89 1607.99 705.194 1619.61 694.956C1631.23 684.442 1645.75 672.267 1663.19 658.433V686.24C1625.83 726.361 1591.94 764.406 1561.5 800.376C1531.34 836.346 1507.96 865.122 1491.36 886.704C1475.03 908.286 1465.49 920.876 1462.72 924.473C1455.25 934.157 1448.47 943.149 1442.38 951.45C1436.57 960.028 1431.59 966.53 1427.44 970.957C1423.57 975.661 1420.39 978.013 1417.9 978.013C1412.09 978.013 1406.83 972.202 1402.13 960.581C1397.7 949.237 1395.49 939.137 1395.49 930.283C1395.49 922.259 1397.01 915.203 1400.05 909.116C1419.97 864.292 1464.66 786.403 1534.11 675.449Z" fill="#2C39B5"/>
<path fill-rule="evenodd" clip-rule="evenodd" d="M528.237 1110C834.755 1110 1083.24 861.518 1083.24 555C1083.24 248.482 834.755 0 528.237 0C390.2 0 263.933 50.3935 166.829 133.787C223.165 104.511 286.967 88 354.556 88C582.926 88 768.056 276.488 768.056 509C768.056 741.512 582.926 930 354.556 930C204.053 930 72.3291 848.134 0 725.754C72.0223 948.724 281.296 1110 528.237 1110Z" fill="#2C39B5"/>
<mask id="mask0_56610_17002" style="mask-type:alpha" maskUnits="userSpaceOnUse" x="0" y="0" width="1084" height="1110">
<path fill-rule="evenodd" clip-rule="evenodd" d="M528.237 1110C834.755 1110 1083.24 861.518 1083.24 555C1083.24 248.482 834.755 0 528.237 0C390.2 0 263.933 50.3935 166.829 133.787C223.165 104.511 286.967 88 354.556 88C582.926 88 768.056 276.488 768.056 509C768.056 741.512 582.926 930 354.556 930C204.053 930 72.3291 848.134 0 725.754C72.0223 948.724 281.296 1110 528.237 1110Z" fill="#B6BBED"/>
</mask>
<g mask="url(#mask0_56610_17002)">
<path d="M324.723 509.434L303.556 534.336C328.182 536.549 350.179 539.593 369.548 543.467C388.916 547.064 406.763 551.214 423.088 555.918C439.689 560.345 454.216 565.049 466.667 570.029C510.384 588.291 532.243 613.747 532.243 646.396C532.243 666.318 523.112 685.825 504.85 704.917C486.589 724.009 462.793 741.025 433.464 755.967C404.411 770.908 374.39 782.529 343.4 790.83C312.687 799.408 284.741 803.696 259.562 803.696C217.505 803.696 184.717 795.949 161.198 780.454C137.679 764.683 125.92 743.239 125.92 716.123C125.92 697.308 133.114 675.173 147.502 649.717C161.89 624.261 184.163 592.58 214.323 554.673C191.634 553.566 175.586 550.246 166.178 544.712C156.771 538.901 152.067 530.877 152.067 520.64C152.067 514.276 153.866 509.434 157.463 506.113C161.06 502.793 165.902 500.441 171.989 499.058C178.076 497.397 189.697 495.461 206.852 493.247C224.284 491.034 246.558 488.267 273.674 484.946C303.833 447.869 330.811 420.062 354.606 401.523C378.678 382.708 404.411 371.917 431.803 369.15C434.017 368.874 436.369 368.735 438.859 368.735C441.626 368.735 443.01 369.427 443.01 370.811C443.01 372.471 439.828 376.898 433.464 384.092C427.376 391.286 417.277 402.769 403.166 418.54C389.331 434.312 372.868 452.988 353.776 474.57C405.794 467.653 448.267 459.767 481.193 450.913C514.396 441.782 539.437 430.991 556.315 418.54C573.193 406.089 581.633 392.254 581.633 377.036C581.633 358.498 572.64 345.078 554.655 336.777C536.67 328.477 509.139 324.326 472.062 324.326C451.587 324.326 428.068 326.401 401.506 330.552C375.22 334.702 351.286 339.406 329.704 344.663C308.399 349.92 289.307 355.592 272.428 361.68C255.827 367.49 247.526 371.779 247.526 374.546C247.526 375.376 248.356 376.206 250.016 377.036C263.574 382.017 270.353 386.167 270.353 389.487C270.353 393.914 249.601 402.492 208.097 415.22C166.594 427.671 138.648 433.896 124.26 433.896C114.022 433.896 108.903 428.778 108.903 418.54C108.903 406.366 119.971 384.507 142.106 352.964C164.518 321.144 184.855 300.807 203.117 291.953C209.481 288.91 224.284 284.067 247.526 277.427C270.768 270.786 296.224 264.422 323.893 258.335C351.839 252.248 380.2 247.129 408.976 242.979C437.752 238.828 463.208 236.753 485.344 236.753C537.638 236.753 576.929 246.16 603.215 264.976C629.5 283.514 642.643 306.895 642.643 335.117C642.643 354.209 636.556 372.609 624.382 390.317C612.484 408.026 593.807 424.766 568.351 440.537C542.896 456.309 509.692 470.143 468.742 482.041C428.068 493.939 380.062 503.07 324.723 509.434ZM280.729 562.974C266.341 580.129 253.475 595.347 242.131 608.628C231.063 621.632 223.039 632.285 218.058 640.586C213.355 648.61 211.003 656.772 211.003 665.073C211.003 678.354 217.782 690.252 231.34 700.767C245.174 711.004 264.958 716.123 290.69 716.123C314.486 716.123 339.803 711.973 366.642 703.672C393.758 695.094 416.447 684.027 434.709 670.469C453.247 656.911 462.516 643.215 462.516 629.38C462.516 617.482 455.737 607.66 442.179 599.912C428.622 592.165 408.008 585.386 380.339 579.575C352.669 573.488 319.466 567.954 280.729 562.974ZM939.357 473.74C932.44 473.74 925.799 471.112 919.435 465.854C913.348 460.597 910.304 453.957 910.304 445.933C910.304 433.758 916.115 420.2 927.736 405.259C939.357 390.317 951.393 382.847 963.844 382.847C972.145 382.847 979.063 385.475 984.596 390.732C990.13 395.713 992.897 403.045 992.897 412.729C992.897 424.627 987.225 437.77 975.881 452.158C964.536 466.546 952.362 473.74 939.357 473.74ZM967.58 659.263V689.561C940.741 724.147 915.7 750.295 892.458 768.003C869.216 785.435 849.432 794.15 833.107 794.15C810.418 794.15 793.54 782.253 782.472 758.457C771.405 734.661 765.871 708.652 765.871 680.43C765.871 669.639 766.978 659.401 769.191 649.717C771.405 639.756 774.033 631.593 777.077 625.229C780.121 618.866 785.793 608.905 794.094 595.347C833.384 534.198 869.354 503.623 902.004 503.623C918.882 503.623 927.321 510.125 927.321 523.13C927.321 531.984 921.787 545.819 910.719 564.634C899.928 583.449 890.244 596.868 881.667 604.893C857.594 628.135 841.823 644.321 834.352 653.452C827.158 662.583 823.561 672.959 823.561 684.58C823.561 694.541 827.297 702.842 834.767 709.482C842.238 716.123 851.922 719.443 863.82 719.443C876.825 719.443 891.074 714.74 906.569 705.332C922.341 695.648 942.677 680.291 967.58 659.263ZM1162.65 654.697V685.41C1104.82 762.054 1057.78 800.376 1021.53 800.376C1001.89 800.376 986.395 789.723 975.051 768.418C963.983 746.836 958.449 718.613 958.449 683.75C958.449 655.527 965.09 622.048 978.371 583.311C991.652 544.297 1009.36 504.868 1031.5 465.024C1053.91 424.904 1077.01 390.041 1100.81 360.435C1124.88 330.552 1147.15 309.661 1167.63 297.764C1175.93 292.783 1182.43 290.293 1187.14 290.293C1192.95 290.293 1196.82 292.922 1198.76 298.179C1200.69 303.159 1201.66 311.875 1201.66 324.326C1201.66 362.786 1186.03 410.101 1154.76 466.27C1123.5 522.161 1079.92 579.299 1024.03 637.681C1021.26 652.069 1019.87 663.136 1019.87 670.884C1019.87 688.592 1023.61 702.98 1031.08 714.048C1038.83 725.116 1049.48 730.649 1063.04 730.649C1069.96 730.649 1077.43 728.021 1085.45 722.764C1093.48 717.23 1101.91 710.451 1110.77 702.427C1119.62 694.403 1136.92 678.493 1162.65 654.697ZM1038.55 579.99C1052.94 565.879 1066.77 549.831 1080.06 531.846C1093.61 513.861 1106.34 494.631 1118.24 474.155C1130.14 453.68 1139.41 435.28 1146.05 418.955C1152.96 402.63 1156.42 390.317 1156.42 382.017C1156.42 375.653 1154.21 372.471 1149.78 372.471C1148.12 372.471 1144.94 373.993 1140.24 377.036C1123.36 390.871 1104.4 417.987 1083.38 458.384C1062.35 498.504 1047.41 539.04 1038.55 579.99ZM1357.72 654.697V685.41C1299.89 762.054 1252.85 800.376 1216.6 800.376C1196.96 800.376 1181.46 789.723 1170.12 768.418C1159.05 746.836 1153.52 718.613 1153.52 683.75C1153.52 655.527 1160.16 622.048 1173.44 583.311C1186.72 544.297 1204.43 504.868 1226.56 465.024C1248.98 424.904 1272.08 390.041 1295.88 360.435C1319.95 330.552 1342.22 309.661 1362.7 297.764C1371 292.783 1377.5 290.293 1382.2 290.293C1388.01 290.293 1391.89 292.922 1393.82 298.179C1395.76 303.159 1396.73 311.875 1396.73 324.326C1396.73 362.786 1381.1 410.101 1349.83 466.27C1318.56 522.161 1274.99 579.299 1219.09 637.681C1216.33 652.069 1214.94 663.136 1214.94 670.884C1214.94 688.592 1218.68 702.98 1226.15 714.048C1233.9 725.116 1244.55 730.649 1258.11 730.649C1265.02 730.649 1272.5 728.021 1280.52 722.764C1288.54 717.23 1296.98 710.451 1305.84 702.427C1314.69 694.403 1331.98 678.493 1357.72 654.697ZM1233.62 579.99C1248.01 565.879 1261.84 549.831 1275.12 531.846C1288.68 513.861 1301.41 494.631 1313.31 474.155C1325.21 453.68 1334.47 435.28 1341.11 418.955C1348.03 402.63 1351.49 390.317 1351.49 382.017C1351.49 375.653 1349.28 372.471 1344.85 372.471C1343.19 372.471 1340.01 373.993 1335.3 377.036C1318.43 390.871 1299.47 417.987 1278.44 458.384C1257.42 498.504 1242.47 539.04 1233.62 579.99ZM1534.11 675.449L1460.23 738.12C1425.09 768.833 1401.57 784.189 1389.67 784.189C1378.88 784.189 1367.54 771.877 1355.64 747.251C1343.74 722.349 1337.79 700.628 1337.79 682.09C1337.79 666.318 1340.15 653.037 1344.85 642.246C1349.83 631.178 1358.27 616.929 1370.17 599.497C1387.05 575.978 1403.23 556.056 1418.73 539.731C1434.22 523.407 1447.92 510.817 1459.82 501.963C1471.71 492.832 1480.01 488.267 1484.72 488.267C1492.19 488.267 1499.38 492.14 1506.3 499.888C1513.49 507.635 1517.09 515.659 1517.09 523.96C1517.09 529.217 1513.22 537.656 1505.47 549.277C1498 560.898 1485.96 575.701 1469.36 593.687C1453.04 611.395 1430.21 632.7 1400.88 657.603L1392.99 680.43C1390.78 684.857 1389.67 688.73 1389.67 692.051C1389.67 699.521 1393.41 703.257 1400.88 703.257C1408.63 703.257 1426.75 693.434 1455.25 673.789C1484.03 654.144 1515.15 627.72 1548.63 594.517C1561.64 581.512 1572.43 570.029 1581.01 560.068C1589.59 550.107 1597.33 540.838 1604.25 532.261C1611.17 523.407 1616.84 516.766 1621.27 512.339C1625.97 507.912 1630.12 505.56 1633.72 505.283C1640.63 504.453 1646.03 507.358 1649.9 513.999C1653.78 520.64 1655.71 530.462 1655.71 543.467C1655.71 550.938 1652.39 560.345 1645.75 571.689C1639.11 582.757 1626.66 601.849 1608.4 628.965C1590.14 655.804 1571.88 683.75 1553.61 712.803C1535.63 741.579 1517.23 774.09 1498.41 810.337C1499.24 809.507 1507.68 801.206 1523.73 785.435C1540.06 769.663 1557.21 753.2 1575.2 736.045C1593.18 718.89 1607.99 705.194 1619.61 694.956C1631.23 684.442 1645.75 672.267 1663.19 658.433V686.24C1625.83 726.361 1591.94 764.406 1561.5 800.376C1531.34 836.346 1507.96 865.122 1491.36 886.704C1475.03 908.286 1465.49 920.876 1462.72 924.473C1455.25 934.157 1448.47 943.149 1442.38 951.45C1436.57 960.028 1431.59 966.53 1427.44 970.957C1423.57 975.661 1420.39 978.013 1417.9 978.013C1412.09 978.013 1406.83 972.202 1402.13 960.581C1397.7 949.237 1395.49 939.137 1395.49 930.283C1395.49 922.259 1397.01 915.203 1400.05 909.116C1419.97 864.292 1464.66 786.403 1534.11 675.449Z" fill="white"/>
</g>
</svg>
