<svg width="35" height="33" viewBox="0 0 35 33" fill="none" xmlns="http://www.w3.org/2000/svg">
<path d="M20.9432 22.8562C20.9432 22.8562 23.6156 21.4191 24.3152 21.0737C25.0128 20.7271 25.7355 20.6397 26.1744 20.8914C26.839 21.2734 32.42 24.7609 32.8899 25.0696C33.3598 25.379 33.5862 26.2625 32.94 27.128C32.2965 27.9935 29.3279 31.4159 28.0699 31.3794C26.81 31.3409 21.5715 31.233 11.6933 21.951C1.81708 12.6721 1.70026 7.74991 1.66 6.56633C1.61974 5.38337 5.26294 2.59399 6.1843 1.98887C7.10698 1.38437 8.0488 1.61191 8.37616 2.03723C8.7484 2.52145 12.418 7.74743 12.8219 8.34635C13.0985 8.75555 12.9968 9.43817 12.6279 10.0941C12.2609 10.7513 10.731 13.2617 10.731 13.2617C10.731 13.2617 11.8095 14.9897 15.4566 18.4152C19.1045 21.8413 20.9432 22.8562 20.9432 22.8562Z" stroke="#4B4B4B" stroke-width="2" stroke-miterlimit="10"/>
</svg>
