<svg width="40" height="40" viewBox="0 0 40 40" fill="none" xmlns="http://www.w3.org/2000/svg">
<path d="M20 0C8.97211 0 0 8.97211 0 20C0 31.0279 8.97211 40 20 40C31.0279 40 40 31.0279 40 20C40 8.97211 31.0279 0 20 0ZM20.1923 9.23077C21.5616 9.23077 22.9001 9.6368 24.0386 10.3975C25.1771 11.1582 26.0644 12.2395 26.5884 13.5045C27.1124 14.7695 27.2495 16.1615 26.9824 17.5045C26.7152 18.8474 26.0559 20.081 25.0877 21.0492C24.1195 22.0174 22.8859 22.6768 21.5429 22.9439C20.2 23.211 18.808 23.0739 17.543 22.5499C16.2779 22.0259 15.1967 21.1386 14.436 20.0001C13.6753 18.8616 13.2692 17.5231 13.2692 16.1538C13.2692 14.3177 13.9986 12.5568 15.297 11.2585C16.5953 9.96016 18.3562 9.23077 20.1923 9.23077ZM20 36.9231C17.6658 36.924 15.3568 36.4409 13.2189 35.5041C11.0809 34.5674 9.16045 33.1974 7.57885 31.4808C8.42885 27.0788 16.0635 26.1538 20 26.1538C23.9365 26.1538 31.5712 27.0788 32.4212 31.4798C30.8397 33.1968 28.9194 34.567 26.7814 35.504C24.6434 36.4409 22.3343 36.9241 20 36.9231Z" fill="#515151"/>
</svg>
