<svg xmlns="http://www.w3.org/2000/svg" width="44" height="40" viewBox="0 0 44 40" fill="none">
<path d="M22 38C22 38 2 26.5455 2 12.6364C2 10.1775 2.83299 7.79459 4.35724 5.89304C5.8815 3.9915 8.00285 2.68879 10.3604 2.20657C12.7179 1.72434 15.166 2.09239 17.2881 3.24809C19.4102 4.40379 21.0753 6.27574 22 8.54547C22.9247 6.27574 24.5898 4.40379 26.7119 3.24809C28.834 2.09239 31.2821 1.72434 33.6396 2.20657C35.9971 2.68879 38.1185 3.9915 39.6428 5.89304C41.167 7.79459 42 10.1775 42 12.6364C42 26.5455 22 38 22 38Z" stroke="#2C39B5" stroke-width="3" stroke-linecap="round" stroke-linejoin="round"/>
</svg>