<svg xmlns="http://www.w3.org/2000/svg" width="44" height="40" viewBox="0 0 44 40" fill="none">
<path d="M22 37.5218C22 37.5218 2 26.3577 2 12.8014C2 10.4049 2.83299 8.08244 4.35724 6.22912C5.8815 4.3758 8.00285 3.10614 10.3604 2.63614C12.7179 2.16615 15.166 2.52486 17.2881 3.65125C19.4102 4.77764 21.0753 6.60212 22 8.81428C22.9247 6.60212 24.5898 4.77764 26.7119 3.65125C28.834 2.52486 31.2821 2.16615 33.6396 2.63614C35.9971 3.10614 38.1185 4.3758 39.6428 6.22912C41.167 8.08244 42 10.4049 42 12.8014C42 26.3577 22 37.5218 22 37.5218Z" fill="#2C39B5" stroke="#2C39B5" stroke-width="3" stroke-linecap="round" stroke-linejoin="round"/>
</svg>