<svg width="100" height="70" viewBox="0 0 140 70" fill="none" xmlns="http://www.w3.org/2000/svg">
<g id="&#235;&#132;&#164;&#236;&#157;&#180;&#235;&#178;&#132;pay">

<g id="&#235;&#132;&#164;&#236;&#157;&#180;&#235;&#178;&#132;pay_2">
<g id="pay">
<path d="M70 43.8635V26.2958H71.6382L71.8374 27.7295H71.9038C72.9885 26.7965 74.3168 26 75.7114 26C78.8328 26 80.4931 28.4804 80.4931 32.3034C80.4931 36.5133 78.0359 38.9709 75.2687 38.9709C74.184 38.9709 73.055 38.4475 71.9702 37.5373L72.0145 39.6991V43.8635H70ZM74.9588 37.2187C76.929 37.2187 78.4122 35.3755 78.4122 32.3262C78.4122 29.5727 77.5046 27.7295 75.2244 27.7295C74.2061 27.7295 73.1878 28.3211 72.0145 29.4362V35.9444C73.0992 36.8774 74.1618 37.2187 74.9588 37.2187Z" fill="#03C75A"/>
<path d="M86.0842 38.9709C84.0697 38.9709 82.5643 37.6738 82.5643 35.4437C82.5643 32.7585 84.8223 31.4159 89.9361 30.8243C89.9361 29.2314 89.449 27.7067 87.4788 27.7067C86.062 27.7067 84.8002 28.3894 83.8704 29.0493L83.0735 27.5929C84.1804 26.8647 85.8628 26 87.7887 26C90.733 26 91.9727 28.0025 91.9727 31.0746V38.6523H90.3124L90.1353 37.196H90.0467C88.9177 38.1745 87.5674 38.9709 86.0842 38.9709ZM86.6376 37.287C87.8109 37.287 88.7849 36.7181 89.9361 35.6485V32.2124C85.8849 32.6903 84.5345 33.7143 84.5345 35.3072C84.5345 36.7181 85.4643 37.287 86.6376 37.287Z" fill="#03C75A"/>
<path d="M95.968 44C95.4145 44 94.9496 43.909 94.5733 43.7497L94.9718 42.0885C95.1932 42.1795 95.5474 42.2705 95.8794 42.2705C97.2298 42.2705 98.0932 41.1327 98.6023 39.6081L98.868 38.6751L94.042 26.2958H96.1229L98.5802 33.1681C98.9565 34.2604 99.355 35.512 99.7535 36.6498H99.8641C100.196 35.512 100.55 34.2832 100.86 33.1681L103.03 26.2958H105L100.462 39.6991C99.6206 42.134 98.3809 44 95.968 44Z" fill="#03C75A"/>
</g>
<g id="Group 41">
<g id="g506">
<path id="path508" d="M63 50.0001H39C37.35 50.0001 36 48.6501 36 47.0001V23.0001C36 21.3501 37.35 20.0001 39 20.0001H63C64.65 20.0001 66 21.3501 66 23.0001V47.0001C66 48.6501 64.65 50.0001 63 50.0001Z" fill="#03C75A"/>
</g>
<g id="g510">
<path id="path512" d="M53.9418 35.5637L47.9593 27H43V43H48.1951V34.4373L54.1776 43H59.1369V27H53.9418V35.5637Z" fill="white"/>
</g>
</g>
</g>
</g>
</svg>
