<svg width="32" height="31" viewBox="0 0 32 31" fill="none" xmlns="http://www.w3.org/2000/svg">
<g id="camera">
<path id="Vector" fill-rule="evenodd" clip-rule="evenodd" d="M16 8.48438C11.581 8.48438 8 12.4588 8 17.3634C8 22.2668 11.581 26.2424 16 26.2424C20.418 26.2424 24 22.2668 24 17.3634C24 12.46 20.418 8.48438 16 8.48438ZM20.555 21.6975C18.399 24.4899 14.612 24.8129 12.096 22.4189C9.579 20.026 9.289 15.8218 11.446 13.0304C13.601 10.2369 17.389 9.915 19.905 12.309C22.42 14.7008 22.711 18.9061 20.555 21.6975Z" fill="#777777"/>
<path id="Vector_2" fill-rule="evenodd" clip-rule="evenodd" d="M16 12.9243C13.791 12.9243 12.001 14.9121 12 17.3627V17.3649C12 17.6701 12.224 17.9199 12.5 17.9199C12.776 17.9199 13 17.6701 13 17.3649V17.3627C13.001 15.5248 14.343 14.0342 16 14.0342C16.276 14.0342 16.5 13.7856 16.5 13.4793C16.5 13.1729 16.276 12.9243 16 12.9243Z" fill="#777777"/>
<path id="Vector_3" fill-rule="evenodd" clip-rule="evenodd" d="M29.492 7.42023L25.158 6.61779L23.785 2.80647C23.326 1.53566 22.232 0.714355 21 0.714355H11C9.768 0.714355 8.674 1.53566 8.214 2.80758L6.842 6.61779L2.509 7.42023C1.055 7.68771 0 9.0684 0 10.7032V27.3514C0 29.1871 1.346 30.681 3 30.681H29C30.654 30.681 32 29.1871 32 27.3514V10.7032C32 9.0684 30.945 7.68771 29.492 7.42023ZM30 27.3514C30 27.9652 29.553 28.4613 29 28.4613H3C2.447 28.4613 2 27.9652 2 27.3514V10.7032C2 10.1605 2.354 9.6977 2.836 9.60891L8.28 8.60225L10.071 3.63222C10.224 3.21158 10.591 2.93411 11 2.93411H21C21.408 2.93411 21.775 3.21047 21.928 3.63222L23.719 8.60225L29.164 9.60891C29.646 9.6977 30 10.1605 30 10.7032V27.3514Z" fill="#777777"/>
</g>
</svg>
