<svg xmlns="http://www.w3.org/2000/svg" viewBox="0 0 133.46 24.3"><defs><style>.cls-1{fill:#0091db;}.cls-2{fill:#004ea2;}.cls-3{fill:#82bf25;}</style></defs><g id="레이어_2" data-name="레이어 2"><g id="Layer_1" data-name="Layer 1"><path class="cls-1" d="M6.06,12.15A12.15,12.15,0,0,1,18.21,0H12.15a12.15,12.15,0,0,0,0,24.3h6.06A12.15,12.15,0,0,1,6.06,12.15Z"/><path class="cls-2" d="M6.06,12.15a6,6,0,0,1,6-6H19L24.3,0H18.21A12.15,12.15,0,0,0,6.06,12.15Z"/><path class="cls-2" d="M21,18.23l-.05,0H12.1a6,6,0,0,1-6-6A12.15,12.15,0,0,0,18.21,24.3H24.3A12.21,12.21,0,0,0,21,18.23Z"/><path class="cls-3" d="M15,10.85,11.8,14.61h.59A12.05,12.05,0,0,1,21,18.19l.05,0h0A12.21,12.21,0,0,1,24.3,24.3V18.23h0V10.86Z"/><path class="cls-1" d="M42.22,22.74H31.59V21.25H42.22Zm-2.8-5.39V15.21H32.08V13.69h9.57V17.1a14.52,14.52,0,0,1-.33,3.23H39.09A12.43,12.43,0,0,0,39.42,17.35Z"/><path class="cls-1" d="M48.51,19.51H43.35v-3.6h4v-.84h-4V13.7h6.17v3.57h-4v.88h3.3a4.47,4.47,0,0,0,2.07-.33V13.59H53.1v7H50.88V19.13A4.78,4.78,0,0,1,48.51,19.51Zm4.75,2.25V23.2H44V20h2.23v1.75Z"/><path class="cls-1" d="M67.65,20.94h-2v-1.5H76.26v1.5h-2V23.2H72.06V20.94H69.84V23.2H67.65ZM74,17h1.85v1.48H66V17h1.62v-2H66.18V13.59h9.51v1.48H74.25v.72A3.33,3.33,0,0,1,74,17Zm-2-2H69.83v2h2A3.17,3.17,0,0,0,72,15.88Z"/><path class="cls-1" d="M95.49,13.59h2.22V17.3h1.64v1.49H97.71V23.2H95.49Zm-4.18,0a3.24,3.24,0,0,0-3.24,3.24V19.5a3.24,3.24,0,0,0,6.48,0V16.84A3.24,3.24,0,0,0,91.31,13.6Zm1,6.61a1,1,0,0,1-2.08,0V16.13a1,1,0,1,1,2.08,0Z"/><path class="cls-1" d="M84.82,23.2V21.39l0,0a9.88,9.88,0,0,1-4.26,1.12c-.38,0-.83,0-1.3,0-.66,0-1.32,0-1.86-.07V13.71h7L83,15.37H79.54v1.91h3.11L81.24,19h-1.7v2h0a27.81,27.81,0,0,0,5.22-.82h0v-1.5H82.14l1.48-1.78h1.2V13.59H87V23.2Z"/><path class="cls-1" d="M55.89,17.05H54.65V15.7h1.29a13.43,13.43,0,0,0,2.43-.13,2.36,2.36,0,0,0,.05-.48H54.65V13.71h6v1a4.57,4.57,0,0,1-.08.86h1.64v-2H64.4V19H62.17V17.06H59.92c-.94,1.32-2.83,2-5.54,2.15v-1.4A6.08,6.08,0,0,0,57.53,17,13.74,13.74,0,0,1,55.89,17.05Z"/><path class="cls-1" d="M55.31,19.4v3.8H61.5l.76-1.28V23.2H64.4V19.4Zm7,2.46H57.43v-.94h4.84Z"/><path class="cls-1" d="M110.59,22.83H100V21.34h10.63ZM110,20.19l-.59-1.47h-6.67v-1h6.12l.54-1.41h-6.66v-1h6.67l.59-1.48h-9.48v6.41Z"/><path class="cls-1" d="M118.14,14.22v1.35h-7V14.22h2.39v-.63h2.22v.63Zm.78-.61h2.22v2.26h1.57v1.49h-1.57v2.18h-2.22Z"/><path class="cls-1" d="M121.14,20v-.06H112v1.48h6.89a7.82,7.82,0,0,1-.18,1.81H121A14.36,14.36,0,0,0,121.14,20Z"/><path class="cls-1" d="M115.9,15.77h-2.47a1.94,1.94,0,1,0,0,3.87h2.47a1.94,1.94,0,1,0,0-3.87Zm-.8,2.56h-.87a.63.63,0,1,1,0-1.26h.87a.63.63,0,0,1,0,1.26Z"/><polygon class="cls-1" points="133.46 21.9 133.46 23.2 124.38 23.2 124.38 20.53 126.6 20.53 126.6 21.9 133.46 21.9"/><polygon class="cls-1" points="133.31 13.62 133.31 20.96 131.24 20.96 131.24 20.45 128.89 20.45 128.89 19.17 131.24 19.17 131.24 13.62 133.31 13.62"/><path class="cls-1" d="M131.24,21v-.51h-2.35V19.18h2.35v-.66l-.05,0a6.64,6.64,0,0,1-2.05.36h-1.39v1.37h-2.2V18.91h-2.24V17.56l5.89,0a6.9,6.9,0,0,0,2-.34h0V13.59h2.07V21Z"/><path class="cls-1" d="M128.67,13.59H125.6a1.87,1.87,0,1,0,0,3.74h3.07a1.87,1.87,0,0,0,0-3.74Zm-.77,2.47h-1.54a.6.6,0,0,1-.6-.6.59.59,0,0,1,.6-.59h1.54a.59.59,0,0,1,.6.59A.6.6,0,0,1,127.9,16.06Z"/><path class="cls-1" d="M129.87,1.26v8.83h-6.08V1.26ZM126,8.62h1.71V2.75H126Zm5.25-7.53h2.23v9.62h-2.23Z"/><path class="cls-1" d="M42.22,10.32H31.59V8.84H42.22Zm-2.8-5.38V2.8H32.08V1.28h9.57v3.4a14.46,14.46,0,0,1-.33,3.23H39.09A12.4,12.4,0,0,0,39.42,4.94Z"/><path class="cls-1" d="M48.5,7H43.34V3.42h4V2.57h-4V1.21h6.17V4.77h-4v.89h3.3a4.44,4.44,0,0,0,2.07-.34V1.09h2.22v7H50.87V6.63A4.78,4.78,0,0,1,48.5,7Zm4.75,2.25v1.45H44V7.51h2.23V9.26Z"/><path class="cls-1" d="M67.55,8.44h-2V6.94H76.17v1.5h-2v2.27H72V8.44H69.74v2.27H67.55Zm6.39-3.9h1.84V6H65.9V4.54h1.61v-2H66.09V1.09h9.5V2.57H74.15v.72A3.3,3.3,0,0,1,73.94,4.54Zm-2-2H69.73v2h2A3.38,3.38,0,0,0,72,3.39Z"/><path class="cls-1" d="M101.94,6.19h-1.46V4.71H102a9.81,9.81,0,0,0,2.37-.2,7.36,7.36,0,0,0,0-.95V2.75h-3.88V1.26h6.08V3.35c0,4-1.91,6.11-6.14,6.85V8.62A4.56,4.56,0,0,0,104,6,10.23,10.23,0,0,1,101.94,6.19Zm5.84-5.1H110V4.8h1.64V6.29H110v4.42h-2.22Z"/><path class="cls-1" d="M95.49,1.09h2.22V4.8h1.65V6.29H97.71v4.42H95.49Zm-4.18,0a3.23,3.23,0,0,0-3.23,3.24V7a3.24,3.24,0,0,0,6.47,0V4.34A3.24,3.24,0,0,0,91.31,1.1Zm1,6.61a1,1,0,1,1-2.07,0V3.63a1,1,0,1,1,2.07,0Z"/><path class="cls-1" d="M122.67,1.09v9.62h-2V1.09ZM118.23,5h-1.94V6.21h1.94V7.49a35.62,35.62,0,0,1-3.47.86V2.89h2.48V1.43h-4.47v8.74h.51l.34,0a8.76,8.76,0,0,0,4.61-1.54v2h1.84V1.2h-1.84Z"/><path class="cls-1" d="M84.76,10.71V8.9l-.05,0a9.92,9.92,0,0,1-4.26,1.12c-.38,0-.83,0-1.3,0-.66,0-1.32,0-1.86-.07V1.22h7L82.93,2.87H79.48V4.78h3.11L81.18,6.47h-1.7v2h0a26.76,26.76,0,0,0,5.21-.82h0V6.12H82.08l1.48-1.78h1.2V1.09H87v9.62Z"/><path class="cls-1" d="M55.88,4.55H54.64V3.2h1.29a13.37,13.37,0,0,0,2.43-.13,2.28,2.28,0,0,0,0-.48H54.64V1.21h6v1a3.87,3.87,0,0,1-.08.86h1.65v-2h2.22V6.5H62.17V4.56H59.91c-.94,1.32-2.83,2-5.54,2.16V5.31a6.08,6.08,0,0,0,3.15-.84A13.74,13.74,0,0,1,55.88,4.55Z"/><path class="cls-1" d="M55.3,6.9v3.81h6.2l.75-1.29v1.29h2.14V6.9Zm7,2.46H57.42V8.42h4.85Z"/></g></g></svg>