<svg width="142" height="27" viewBox="0 0 142 27" fill="none" xmlns="http://www.w3.org/2000/svg">
<path d="M13.7378 1.92275L13.5 1.19098L13.2622 1.92275L10.5119 10.3873H1.61179H0.842373L1.46485 10.8395L8.66522 16.0709L5.91492 24.5355L5.67716 25.2672L6.29963 24.815L13.5 19.5836L20.7004 24.815L21.3228 25.2672L21.0851 24.5355L18.3348 16.0709L25.5352 10.8395L26.1576 10.3873H25.3882H16.4881L13.7378 1.92275Z" fill="#2C39B5" stroke="#979797" stroke-width="0.5"/>
<path d="M42.2387 1.92556L42 1.16043L41.7613 1.92556L39.1219 10.3873H30.5873H29.8427L30.4365 10.8366L37.3498 16.0687L34.7079 24.5383L34.4758 25.2826L35.0974 24.8121L42 19.5881L48.9026 24.8121L49.5242 25.2826L49.2921 24.5383L46.6502 16.0687L53.5635 10.8366L54.1573 10.3873H53.4127H44.8781L42.2387 1.92556Z" fill="#2C39B5" stroke="#979797" stroke-width="0.5"/>
<path d="M128.738 1.92275L128.5 1.19098L128.262 1.92275L125.512 10.3873H116.612H115.842L116.465 10.8395L123.665 16.0709L120.915 24.5355L120.677 25.2672L121.3 24.815L128.5 19.5836L135.7 24.815L136.323 25.2672L136.085 24.5355L133.335 16.0709L140.535 10.8395L141.158 10.3873H140.388H131.488L128.738 1.92275Z" fill="white" stroke="#979797" stroke-width="0.5"/>
<path d="M100.239 1.92556L100 1.16043L99.7613 1.92556L97.1219 10.3873H88.5873H87.8427L88.4365 10.8366L95.3498 16.0687L92.7079 24.5383L92.4758 25.2826L93.0974 24.8121L100 19.5881L106.903 24.8121L107.524 25.2826L107.292 24.5383L104.65 16.0687L111.564 10.8366L112.157 10.3873H111.413H102.878L100.239 1.92556Z" fill="#2C39B5" stroke="#979797" stroke-width="0.5"/>
<path d="M71.2387 1.92556L71 1.16043L70.7613 1.92556L68.1219 10.3873H59.5873H58.8427L59.4365 10.8366L66.3498 16.0687L63.7079 24.5383L63.4758 25.2826L64.0974 24.8121L71 19.5881L77.9026 24.8121L78.5242 25.2826L78.2921 24.5383L75.6502 16.0687L82.5635 10.8366L83.1573 10.3873H82.4127H73.8781L71.2387 1.92556Z" fill="#2C39B5" stroke="#979797" stroke-width="0.5"/>
</svg>
