<svg width="103" height="36" viewBox="0 0 103 36" fill="none" xmlns="http://www.w3.org/2000/svg">
<rect x="0.5" y="0.5" width="102" height="35" rx="17.5" fill="white" stroke="#2C39B5"/>
<path d="M15.674 13.0725H16.9354L19.9013 20.3169H20.0036L22.9695 13.0725H24.2308V21.7998H23.2422V15.1691H23.157L20.4297 21.7998H19.4751L16.7479 15.1691H16.6626V21.7998H15.674V13.0725ZM33.7134 17.4362C33.7134 18.3566 33.5472 19.1521 33.2148 19.8225C32.8825 20.493 32.4265 21.01 31.8469 21.3737C31.2674 21.7373 30.6055 21.9191 29.8612 21.9191C29.1168 21.9191 28.4549 21.7373 27.8754 21.3737C27.2958 21.01 26.8398 20.493 26.5075 19.8225C26.1751 19.1521 26.0089 18.3566 26.0089 17.4362C26.0089 16.5157 26.1751 15.7203 26.5075 15.0498C26.8398 14.3794 27.2958 13.8623 27.8754 13.4987C28.4549 13.135 29.1168 12.9532 29.8612 12.9532C30.6055 12.9532 31.2674 13.135 31.8469 13.4987C32.4265 13.8623 32.8825 14.3794 33.2148 15.0498C33.5472 15.7203 33.7134 16.5157 33.7134 17.4362ZM32.6907 17.4362C32.6907 16.6805 32.5643 16.0427 32.3114 15.5228C32.0614 15.0029 31.7219 14.6095 31.293 14.3424C30.8668 14.0754 30.3896 13.9418 29.8612 13.9418C29.3327 13.9418 28.854 14.0754 28.4251 14.3424C27.9989 14.6095 27.6594 15.0029 27.4066 15.5228C27.1566 16.0427 27.0316 16.6805 27.0316 17.4362C27.0316 18.1918 27.1566 18.8296 27.4066 19.3495C27.6594 19.8694 27.9989 20.2629 28.4251 20.5299C28.854 20.797 29.3327 20.9305 29.8612 20.9305C30.3896 20.9305 30.8668 20.797 31.293 20.5299C31.7219 20.2629 32.0614 19.8694 32.3114 19.3495C32.5643 18.8296 32.6907 18.1918 32.6907 17.4362ZM35.4904 21.7998V13.0725H38.4393C39.1211 13.0725 39.6808 13.189 40.1183 13.422C40.5558 13.6521 40.8796 13.9688 41.0898 14.3722C41.3001 14.7757 41.4052 15.2345 41.4052 15.7487C41.4052 16.2629 41.3001 16.7188 41.0898 17.1166C40.8796 17.5143 40.5572 17.8268 40.1225 18.0541C39.6879 18.2785 39.1325 18.3907 38.4563 18.3907H36.07V17.4362H38.4222C38.8881 17.4362 39.2631 17.368 39.5472 17.2316C39.8342 17.0953 40.0415 16.9021 40.1694 16.6521C40.3001 16.3992 40.3654 16.0981 40.3654 15.7487C40.3654 15.3992 40.3001 15.0938 40.1694 14.8325C40.0387 14.5711 39.8299 14.3694 39.543 14.2274C39.256 14.0825 38.8768 14.01 38.4052 14.01H36.5472V21.7998H35.4904ZM39.5984 17.8793L41.7461 21.7998H40.5188L38.4052 17.8793H39.5984ZM43.1662 21.7998V13.0725H48.4332V14.01H44.223V16.9589H48.1605V17.8964H44.223V20.8623H48.5014V21.7998H43.1662Z" fill="#2C39B5"/>
<path d="M79.8242 10.7998L87.5492 17.9998L79.8242 24.6855" stroke="#2C39B5" stroke-linecap="round"/>
</svg>
