<svg width="94" height="30" viewBox="0 0 94 30" fill="none" xmlns="http://www.w3.org/2000/svg">

<rect x="0.5" y="0.5" width="93" height="29" fill="white" stroke="#D9D9D9"/>

<path d="M30.288 18.712V17.656H40.224V22.2H38.912V18.712H30.288ZM31.792 9.464V12.248H38.864V9.464H31.792ZM36 15.112H41.824V16.168H28.832V15.112H34.688V13.288H30.512V8.424H40.16V13.288H36V15.112ZM45.0068 18.968V17.896H54.9908V22.056H53.6788V18.968H45.0068ZM50.7348 15.72H56.5748V16.792H43.5508V15.72H49.4068V14.216H45.2308V10.712H53.6148V9.224H45.1988V8.2H54.9108V11.688H46.5268V13.192H55.2148V14.216H50.7348V15.72ZM59.0535 9.368H65.6135C65.6135 13.448 63.7415 17.144 59.1015 19.464L58.3815 18.44C62.0455 16.6 64.0135 13.848 64.3175 10.456H59.0535V9.368ZM71.6295 13.656V14.744H69.3255V22.184H68.0135V7.832H69.3255V13.656H71.6295ZM73.8523 9.384H80.5723C80.5723 13.528 78.6683 17.176 73.9003 19.512L73.1963 18.44C77.0523 16.6 78.9723 13.848 79.2443 10.44H73.8523V9.384ZM83.4683 7.832H84.7803V22.184H83.4683V7.832Z" fill="#777777"/>
<rect x="9" y="9" width="15" height="2" fill="#777777"/>
<rect x="9" y="19" width="15" height="2" fill="#777777"/>
<rect x="9" y="14" width="15" height="2" fill="#777777"/>
</svg>
