<svg width="16" height="14" viewBox="0 0 16 14" fill="none" xmlns="http://www.w3.org/2000/svg">
<path d="M8 13C8 13 1 9.18182 1 4.54546C1 3.72584 1.29155 2.93153 1.82503 2.29768C2.35852 1.66383 3.101 1.2296 3.92614 1.06886C4.75128 0.908115 5.6081 1.0308 6.35084 1.41603C7.09359 1.80126 7.67635 2.42525 8 3.18182C8.32365 2.42525 8.90641 1.80126 9.64915 1.41603C10.3919 1.0308 11.2487 0.908115 12.0739 1.06886C12.899 1.2296 13.6415 1.66383 14.175 2.29768C14.7085 2.93153 15 3.72584 15 4.54546C15 9.18182 8 13 8 13Z" fill="#2C39B5" stroke="#2C39B5" stroke-linecap="round" stroke-linejoin="round"/>
</svg>
