<svg width="550" height="63" viewBox="0 0 550 63" fill="none" xmlns="http://www.w3.org/2000/svg">
<path d="M3.75 60.0256C3.10795 60.0256 2.56108 59.8509 2.10938 59.5014C1.65767 59.1491 1.3125 58.6392 1.07386 57.9716C0.835227 57.3011 0.715909 56.4915 0.715909 55.5426C0.715909 54.5994 0.835227 53.794 1.07386 53.1264C1.31534 52.456 1.66193 51.9446 2.11364 51.5923C2.56818 51.2372 3.11364 51.0597 3.75 51.0597C4.38636 51.0597 4.9304 51.2372 5.3821 51.5923C5.83665 51.9446 6.18324 52.456 6.42188 53.1264C6.66335 53.794 6.78409 54.5994 6.78409 55.5426C6.78409 56.4915 6.66477 57.3011 6.42614 57.9716C6.1875 58.6392 5.84233 59.1491 5.39062 59.5014C4.93892 59.8509 4.39205 60.0256 3.75 60.0256ZM3.75 59.0881C4.38636 59.0881 4.88068 58.7812 5.23295 58.1676C5.58523 57.554 5.76136 56.679 5.76136 55.5426C5.76136 54.7869 5.6804 54.1435 5.51847 53.6122C5.35938 53.081 5.12926 52.6761 4.82812 52.3977C4.52983 52.1193 4.17045 51.9801 3.75 51.9801C3.11932 51.9801 2.62642 52.2912 2.27131 52.9134C1.91619 53.5327 1.73864 54.4091 1.73864 55.5426C1.73864 56.2983 1.81818 56.9403 1.97727 57.4688C2.13636 57.9972 2.36506 58.3991 2.66335 58.6747C2.96449 58.9503 3.3267 59.0881 3.75 59.0881ZM11.4716 51.179V59.9062H10.4148V52.2869H10.3636L8.23295 53.7017V52.6278L10.4148 51.179H11.4716ZM24.9251 49.9822H25.9211V60.8543H24.9251V49.9822ZM20.1971 50.8222C21.8051 50.8222 22.9571 52.2982 22.9571 54.6022C22.9571 56.9182 21.8051 58.3942 20.1971 58.3942C18.6011 58.3942 17.4491 56.9182 17.4491 54.6022C17.4491 52.2982 18.6011 50.8222 20.1971 50.8222ZM20.1971 51.7222C19.1411 51.7222 18.3971 52.8503 18.3971 54.6022C18.3971 56.3662 19.1411 57.5182 20.1971 57.5182C21.2651 57.5182 21.9971 56.3662 21.9971 54.6022C21.9971 52.8503 21.2651 51.7222 20.1971 51.7222ZM30.5042 53.6662H31.4882V55.7182H30.5042V53.6662ZM34.4882 53.6662H35.4722V55.7182H34.4882V53.6662ZM28.0802 55.3582H37.8842V56.1622H28.0802V55.3582ZM32.9762 56.9782C35.3042 56.9782 36.6962 57.6622 36.6962 58.8982C36.6962 60.1343 35.3042 60.8303 32.9762 60.8303C30.6482 60.8303 29.2562 60.1343 29.2562 58.8982C29.2562 57.6622 30.6482 56.9782 32.9762 56.9782ZM32.9762 57.7462C31.2842 57.7462 30.2642 58.1662 30.2642 58.8982C30.2642 59.6422 31.2842 60.0503 32.9762 60.0503C34.6802 60.0503 35.6882 59.6422 35.6882 58.8982C35.6882 58.1662 34.6802 57.7462 32.9762 57.7462ZM32.9882 50.1862C35.3402 50.1862 36.8042 50.9422 36.8042 52.2142C36.8042 53.4742 35.3402 54.2182 32.9882 54.2182C30.6242 54.2182 29.1722 53.4742 29.1722 52.2142C29.1722 50.9422 30.6242 50.1862 32.9882 50.1862ZM32.9882 50.9662C31.2602 50.9662 30.1922 51.4222 30.1922 52.2142C30.1922 52.9942 31.2602 53.4502 32.9882 53.4502C34.7162 53.4502 35.7842 52.9942 35.7842 52.2142C35.7842 51.4222 34.7162 50.9662 32.9882 50.9662ZM47.2433 51.6382H49.1273V52.4782H47.2433V51.6382ZM47.2433 53.9662H49.1273V54.7942H47.2433V53.9662ZM46.5473 49.9942H47.5433V56.4382H46.5473V49.9942ZM40.4993 56.9542H47.5433V60.8423H46.5473V57.7582H40.4993V56.9542ZM42.1553 50.6302C43.7873 50.6302 44.9873 51.6862 44.9873 53.2102C44.9873 54.7222 43.7873 55.7662 42.1553 55.7662C40.5233 55.7662 39.3232 54.7222 39.3232 53.2102C39.3232 51.6862 40.5233 50.6302 42.1553 50.6302ZM42.1553 51.4822C41.0753 51.4822 40.2952 52.1782 40.2952 53.2102C40.2952 54.2302 41.0753 54.9382 42.1553 54.9382C43.2353 54.9382 44.0153 54.2302 44.0153 53.2102C44.0153 52.1782 43.2353 51.4822 42.1553 51.4822ZM50.7463 50.8342H55.5463V51.6502H50.7463V50.8342ZM52.3783 53.2582H53.3623V55.9702H52.3783V53.2582ZM55.1503 50.8342H56.1343V51.4102C56.1343 52.1182 56.1343 53.1982 55.8463 54.6262L54.8743 54.5182C55.1503 53.0902 55.1503 52.1062 55.1503 51.4102V50.8342ZM57.6103 49.9942H58.6063V58.1662H57.6103V49.9942ZM58.1503 53.5222H60.1543V54.3502H58.1503V53.5222ZM51.7543 59.7862H58.9543V60.6023H51.7543V59.7862ZM51.7543 57.4102H52.7383V60.0383H51.7543V57.4102ZM50.1943 56.4382L50.0863 55.6222C52.0183 55.6222 54.6823 55.5742 56.8783 55.2742L56.9503 55.9942C54.6943 56.3902 52.1023 56.4382 50.1943 56.4382ZM64.5844 55.3342H74.3884V56.1502H64.5844V55.3342ZM68.9884 53.5942H69.9724V55.6702H68.9884V53.5942ZM65.8204 53.2822H73.2484V54.0982H65.8204V53.2822ZM65.8204 50.4862H73.1644V51.2902H66.8044V53.7622H65.8204V50.4862ZM69.4684 56.9302C71.7844 56.9302 73.1884 57.6382 73.1884 58.8742C73.1884 60.1343 71.7844 60.8303 69.4684 60.8303C67.1524 60.8303 65.7484 60.1343 65.7484 58.8742C65.7484 57.6382 67.1524 56.9302 69.4684 56.9302ZM69.4684 57.6982C67.7764 57.6982 66.7564 58.1302 66.7564 58.8742C66.7564 59.6302 67.7764 60.0503 69.4684 60.0503C71.1724 60.0503 72.1804 59.6302 72.1804 58.8742C72.1804 58.1302 71.1724 57.6982 69.4684 57.6982ZM79.1394 50.7742C80.8314 50.7742 82.0434 51.8182 82.0434 53.3302C82.0434 54.8542 80.8314 55.8982 79.1394 55.8982C77.4474 55.8982 76.2234 54.8542 76.2234 53.3302C76.2234 51.8182 77.4474 50.7742 79.1394 50.7742ZM79.1394 51.6382C78.0114 51.6382 77.1954 52.3222 77.1954 53.3302C77.1954 54.3382 78.0114 55.0342 79.1394 55.0342C80.2554 55.0342 81.0714 54.3382 81.0714 53.3302C81.0714 52.3222 80.2554 51.6382 79.1394 51.6382ZM83.4594 49.9822H84.4554V60.8543H83.4594V49.9822ZM75.8154 58.4782L75.6714 57.6502C77.6514 57.6502 80.3874 57.6382 82.7514 57.2662L82.8354 57.9982C80.3994 58.4662 77.7474 58.4782 75.8154 58.4782Z" fill="#777777"/>
<path fill-rule="evenodd" clip-rule="evenodd" d="M49.9955 1H39.9955V3.65763L49.9955 3.65763V1ZM39.9955 0C39.4432 0 38.9955 0.447716 38.9955 1V1.99613H32.9961C31.3392 1.99613 29.9961 3.33927 29.9961 4.99613V36.9225C29.9961 38.5794 31.3392 39.9225 32.9961 39.9225H56.9939C58.6508 39.9225 59.9939 38.5794 59.9939 36.9225V4.99613C59.9939 3.33927 58.6508 1.99613 56.9939 1.99613H50.9955V1C50.9955 0.447715 50.5477 0 49.9955 0H39.9955ZM50.9955 2.99613V3.65763C50.9955 4.20991 50.5477 4.65763 49.9955 4.65763H39.9955C39.4432 4.65763 38.9955 4.20991 38.9955 3.65763V2.99613H32.9961C31.8915 2.99613 30.9961 3.89156 30.9961 4.99613V36.9225C30.9961 38.0271 31.8915 38.9225 32.9961 38.9225H56.9939C58.0985 38.9225 58.9939 38.0271 58.9939 36.9225V4.99613C58.9939 3.89156 58.0985 2.99613 56.9939 2.99613H50.9955ZM33.4961 12.8076V9.14996H37.7461V12.8076H33.4961ZM33.2522 8.14996C33.0662 8.14996 32.8794 8.21672 32.7347 8.34825C32.5885 8.48121 32.4961 8.67231 32.4961 8.88284V13.0747C32.4961 13.2852 32.5885 13.4763 32.7347 13.6093C32.8794 13.7408 33.0662 13.8076 33.2522 13.8076H37.99C38.176 13.8076 38.3628 13.7408 38.5075 13.6093C38.6537 13.4763 38.7461 13.2852 38.7461 13.0747V8.88284C38.7461 8.67231 38.6537 8.48121 38.5075 8.34825C38.3628 8.21672 38.176 8.14996 37.99 8.14996H33.2522ZM33.4961 17.1345V20.7921H37.7461V17.1345H33.4961ZM32.7347 16.3328C32.8794 16.2012 33.0662 16.1345 33.2522 16.1345H37.99C38.176 16.1345 38.3628 16.2012 38.5075 16.3328C38.6537 16.4657 38.7461 16.6568 38.7461 16.8673V21.0592C38.7461 21.2698 38.6537 21.4608 38.5075 21.5938C38.3628 21.7253 38.176 21.7921 37.99 21.7921H33.2522C33.0662 21.7921 32.8794 21.7253 32.7347 21.5938C32.5885 21.4608 32.4961 21.2698 32.4961 21.0592V16.8673C32.4961 16.6568 32.5885 16.4657 32.7347 16.3328ZM33.4961 28.7766V25.119H37.7461V28.7766H33.4961ZM33.2522 24.119C33.0662 24.119 32.8794 24.1857 32.7347 24.3173C32.5885 24.4502 32.4961 24.6413 32.4961 24.8519V29.0437C32.4961 29.2543 32.5885 29.4453 32.7347 29.5783C32.8794 29.7098 33.0662 29.7766 33.2522 29.7766H37.99C38.176 29.7766 38.3628 29.7098 38.5075 29.5783C38.6537 29.4453 38.7461 29.2543 38.7461 29.0437V24.8519C38.7461 24.6413 38.6537 24.4502 38.5075 24.3173C38.3628 24.1857 38.176 24.119 37.99 24.119H33.2522ZM33.4961 36.7611V33.1035H37.7461V36.7611H33.4961ZM33.2522 32.1035C33.0662 32.1035 32.8794 32.1702 32.7347 32.3018C32.5885 32.4347 32.4961 32.6258 32.4961 32.8364V37.0282C32.4961 37.2388 32.5885 37.4299 32.7347 37.5628C32.8794 37.6943 33.0662 37.7611 33.2522 37.7611H37.99C38.176 37.7611 38.3628 37.6943 38.5075 37.5628C38.6537 37.4299 38.7461 37.2388 38.7461 37.0282V32.8364C38.7461 32.6258 38.6537 32.4347 38.5075 32.3018C38.3628 32.1702 38.176 32.1035 37.99 32.1035H33.2522ZM40.7453 26.9477C40.7453 26.6716 40.9692 26.4477 41.2453 26.4477H56.2442C56.5204 26.4477 56.7442 26.6716 56.7442 26.9477C56.7442 27.2238 56.5204 27.4477 56.2442 27.4477H41.2453C40.9692 27.4477 40.7453 27.2238 40.7453 26.9477ZM41.2453 34.7648C40.9692 34.7648 40.7453 34.9887 40.7453 35.2648C40.7453 35.541 40.9692 35.7648 41.2453 35.7648H56.2442C56.5204 35.7648 56.7442 35.541 56.7442 35.2648C56.7442 34.9887 56.5204 34.7648 56.2442 34.7648H41.2453ZM40.7453 19.2958C40.7453 19.0197 40.9692 18.7958 41.2453 18.7958H56.2442C56.5204 18.7958 56.7442 19.0197 56.7442 19.2958C56.7442 19.5719 56.5204 19.7958 56.2442 19.7958H41.2453C40.9692 19.7958 40.7453 19.5719 40.7453 19.2958ZM41.2453 10.8113C40.9692 10.8113 40.7453 11.0352 40.7453 11.3113C40.7453 11.5874 40.9692 11.8113 41.2453 11.8113H56.2442C56.5204 11.8113 56.7442 11.5874 56.7442 11.3113C56.7442 11.0352 56.5204 10.8113 56.2442 10.8113H41.2453Z" fill="#777777"/>
<path d="M233.734 60.0295C233.092 60.0295 232.545 59.8548 232.094 59.5053C231.642 59.1531 231.297 58.6431 231.058 57.9755C230.82 57.305 230.7 56.4954 230.7 55.5465C230.7 54.6033 230.82 53.7979 231.058 53.1303C231.3 52.4599 231.646 51.9485 232.098 51.5962C232.553 51.2411 233.098 51.0636 233.734 51.0636C234.371 51.0636 234.915 51.2411 235.366 51.5962C235.821 51.9485 236.168 52.4599 236.406 53.1303C236.648 53.7979 236.768 54.6033 236.768 55.5465C236.768 56.4954 236.649 57.305 236.411 57.9755C236.172 58.6431 235.827 59.1531 235.375 59.5053C234.923 59.8548 234.376 60.0295 233.734 60.0295ZM233.734 59.092C234.371 59.092 234.865 58.7852 235.217 58.1715C235.57 57.5579 235.746 56.6829 235.746 55.5465C235.746 54.7908 235.665 54.1474 235.503 53.6161C235.344 53.0849 235.114 52.68 234.812 52.4016C234.514 52.1232 234.155 51.984 233.734 51.984C233.104 51.984 232.611 52.2951 232.256 52.9173C231.901 53.5366 231.723 54.413 231.723 55.5465C231.723 56.3022 231.803 56.9442 231.962 57.4727C232.121 58.0011 232.349 58.4031 232.648 58.6786C232.949 58.9542 233.311 59.092 233.734 59.092ZM238.388 59.9102V59.1431L241.268 55.9897C241.607 55.6204 241.885 55.2994 242.104 55.0266C242.322 54.7511 242.484 54.4925 242.589 54.2511C242.697 54.0067 242.751 53.7511 242.751 53.484C242.751 53.1772 242.678 52.9116 242.53 52.6871C242.385 52.4627 242.186 52.2894 241.933 52.1673C241.68 52.0451 241.396 51.984 241.081 51.984C240.746 51.984 240.453 52.0536 240.203 52.1928C239.956 52.3292 239.764 52.521 239.628 52.7681C239.494 53.0153 239.428 53.305 239.428 53.6374H238.422C238.422 53.1261 238.54 52.6772 238.776 52.2908C239.011 51.9045 239.332 51.6033 239.739 51.3874C240.148 51.1715 240.607 51.0636 241.115 51.0636C241.626 51.0636 242.08 51.1715 242.474 51.3874C242.869 51.6033 243.179 51.8945 243.403 52.261C243.628 52.6275 243.74 53.0352 243.74 53.484C243.74 53.805 243.682 54.119 243.565 54.4258C243.452 54.7298 243.253 55.0692 242.969 55.4442C242.688 55.8164 242.297 56.271 241.797 56.8079L239.837 58.9045V58.9727H243.893V59.9102H238.388ZM251.809 56.5022H252.817V58.2902H251.809V56.5022ZM256.561 49.9982H257.557V60.8462H256.561V49.9982ZM248.917 58.7822L248.785 57.9542C250.837 57.9422 253.537 57.9182 255.877 57.6182L255.949 58.3502C253.537 58.7582 250.921 58.7822 248.917 58.7822ZM249.013 51.3182H255.601V52.1222H249.013V51.3182ZM252.301 52.7462C253.861 52.7462 254.917 53.5382 254.917 54.7502C254.917 55.9742 253.861 56.7542 252.301 56.7542C250.753 56.7542 249.697 55.9742 249.697 54.7502C249.697 53.5382 250.753 52.7462 252.301 52.7462ZM252.301 53.5142C251.329 53.5142 250.645 54.0062 250.645 54.7502C250.645 55.4942 251.329 55.9862 252.301 55.9862C253.285 55.9862 253.969 55.4942 253.969 54.7502C253.969 54.0062 253.285 53.5142 252.301 53.5142ZM251.809 49.9982H252.805V51.7622H251.809V49.9982ZM262.836 55.4582H263.832V57.8702H262.836V55.4582ZM267.648 49.9982H268.644V58.2542H267.648V49.9982ZM261.24 59.7902H268.908V60.6062H261.24V59.7902ZM261.24 57.4502H262.236V60.0182H261.24V57.4502ZM259.836 55.8302L259.704 55.0142C261.708 55.0142 264.396 54.9902 266.7 54.6902L266.772 55.4222C264.432 55.7942 261.804 55.8302 259.836 55.8302ZM265.44 56.4062H267.9V57.1382H265.44V56.4062ZM263.232 50.4422C264.816 50.4422 265.896 51.1862 265.896 52.3262C265.896 53.4782 264.816 54.2222 263.232 54.2222C261.636 54.2222 260.556 53.4782 260.556 52.3262C260.556 51.1862 261.636 50.4422 263.232 50.4422ZM263.232 51.1862C262.212 51.1862 261.504 51.6302 261.504 52.3262C261.504 53.0222 262.212 53.4662 263.232 53.4662C264.24 53.4662 264.948 53.0222 264.948 52.3262C264.948 51.6302 264.24 51.1862 263.232 51.1862ZM276.587 52.8062H279.035V53.6342H276.587V52.8062ZM278.723 49.9982H279.719V56.4662H278.723V49.9982ZM276.155 56.7902C278.387 56.7902 279.767 57.5462 279.767 58.8182C279.767 60.1022 278.387 60.8342 276.155 60.8342C273.911 60.8342 272.531 60.1022 272.531 58.8182C272.531 57.5462 273.911 56.7902 276.155 56.7902ZM276.155 57.5702C274.523 57.5702 273.527 58.0262 273.527 58.8182C273.527 59.5982 274.523 60.0542 276.155 60.0542C277.787 60.0542 278.783 59.5982 278.783 58.8182C278.783 58.0262 277.787 57.5702 276.155 57.5702ZM273.563 51.0902H274.379V51.9662C274.379 53.9702 273.155 55.6862 271.355 56.3582L270.839 55.5662C272.447 54.9782 273.563 53.5262 273.563 51.9662V51.0902ZM273.755 51.0902H274.559V51.9662C274.559 53.3702 275.615 54.7142 277.187 55.2662L276.683 56.0582C274.919 55.4222 273.755 53.7902 273.755 51.9662V51.0902ZM271.139 50.7902H276.935V51.6062H271.139V50.7902ZM281.842 58.6382H291.67V59.4662H281.842V58.6382ZM286.234 56.0462H287.23V58.8782H286.234V56.0462ZM282.994 50.7662H283.978V52.6982H289.51V50.7662H290.494V56.3102H282.994V50.7662ZM283.978 53.5022V55.4942H289.51V53.5022H283.978ZM304.14 49.9982H305.148V55.8182H304.14V49.9982ZM298.152 56.3582H299.136V57.6782H304.164V56.3582H305.148V60.7022H298.152V56.3582ZM299.136 58.4702V59.8982H304.164V58.4702H299.136ZM299.328 50.5142C300.972 50.5142 302.148 51.5342 302.148 53.0102C302.148 54.4982 300.972 55.5182 299.328 55.5182C297.684 55.5182 296.496 54.4982 296.496 53.0102C296.496 51.5342 297.684 50.5142 299.328 50.5142ZM299.328 51.3422C298.248 51.3422 297.468 52.0262 297.468 53.0102C297.468 53.9942 298.248 54.6782 299.328 54.6782C300.408 54.6782 301.188 53.9942 301.188 53.0102C301.188 52.0262 300.408 51.3422 299.328 51.3422ZM307.739 55.3742H308.519C310.655 55.3742 311.711 55.3382 313.007 55.1102L313.115 55.9142C311.771 56.1542 310.691 56.1902 308.519 56.1902H307.739V55.3742ZM307.715 50.6462H312.395V53.7302H308.723V55.8662H307.739V52.9502H311.411V51.4622H307.715V50.6462ZM315.215 50.0102H316.211V56.6702H315.215V50.0102ZM313.115 51.6062H315.443V52.4222H313.115V51.6062ZM313.115 53.8502H315.443V54.6662H313.115V53.8502ZM308.951 57.2582H316.211V60.8702H315.215V58.0742H308.951V57.2582Z" fill="#777777"/>
<rect x="259.484" y="1.5" width="14.9988" height="14.969" rx="7.4845" stroke="#777777"/>
<rect y="0.706447" width="1.9971" height="15.9835" transform="matrix(0.707766 0.706447 -0.707766 0.706447 289.746 18.5863)" stroke="#777777"/>
<mask id="path-6-inside-1_56767_47501" fill="white">
<path d="M291.367 20.4961L294.196 23.3191L282.175 35.3171L279.347 32.4941L291.367 20.4961Z"/>
</mask>
<path d="M294.196 23.3191L294.903 24.0256L295.611 23.3191L294.903 22.6127L294.196 23.3191ZM282.175 35.3171L281.467 36.0236L282.175 36.73L282.883 36.0236L282.175 35.3171ZM290.659 21.2025L293.488 24.0256L294.903 22.6127L292.075 19.7896L290.659 21.2025ZM293.488 22.6127L281.467 34.6107L282.883 36.0236L294.903 24.0256L293.488 22.6127ZM282.883 34.6107L280.055 31.7876L278.639 33.2005L281.467 36.0236L282.883 34.6107Z" fill="#777777" mask="url(#path-6-inside-1_56767_47501)"/>
<mask id="path-8-inside-2_56767_47501" fill="white">
<path d="M289.952 17.6752C290.343 17.285 290.977 17.285 291.368 17.6752L294.902 21.2026C295.293 21.5928 295.293 22.2254 294.902 22.6155L293.488 24.0264L288.539 19.086L289.952 17.6752Z"/>
</mask>
<path d="M289.245 16.9688C290.026 16.1884 291.294 16.1884 292.076 16.9688L295.61 20.4962C296.392 21.2765 296.392 22.5417 295.61 23.322L294.194 21.9091L290.66 18.3816L289.245 16.9688ZM293.488 24.0264L288.539 19.086L293.488 24.0264ZM287.831 18.3796L289.245 16.9688C290.026 16.1884 291.294 16.1884 292.076 16.9688L290.66 18.3816L289.247 19.7925L287.831 18.3796ZM295.61 20.4962C296.392 21.2765 296.392 22.5417 295.61 23.322L294.196 24.7328L292.781 23.3199L294.194 21.9091L295.61 20.4962Z" fill="#777777" mask="url(#path-8-inside-2_56767_47501)"/>
<path d="M277.227 31.0847L277.934 30.3789L282.176 34.6135L281.469 35.3192L275.459 37.0837L277.227 31.0847Z" stroke="#777777"/>
<path fill-rule="evenodd" clip-rule="evenodd" d="M279.84 28.0391C278.909 21.7746 273.507 16.9688 266.983 16.9688C259.813 16.9688 253.999 22.7745 253.984 29.9416L253.984 29.9678V30.9416H254.984H277.032L276.982 30.8917L277.934 29.9416H254.984C254.999 23.3268 260.365 17.9688 266.983 17.9688C273.264 17.9688 278.417 22.7936 278.939 28.9388L279.84 28.0391Z" fill="#777777"/>
<path d="M463.747 60.1366C463.105 60.1383 462.558 59.9651 462.105 59.6168C461.653 59.2658 461.306 58.7567 461.066 58.0898C460.825 57.42 460.704 56.6106 460.701 55.6618C460.699 54.7186 460.816 53.9129 461.053 53.2446C461.292 52.5735 461.638 52.0612 462.088 51.7078C462.542 51.3514 463.087 51.1724 463.723 51.1707C464.36 51.169 464.904 51.3451 465.357 51.699C465.812 52.0501 466.16 52.5605 466.401 53.2303C466.644 53.8973 466.767 54.7023 466.769 55.6455C466.772 56.5944 466.655 57.4044 466.418 58.0755C466.181 58.7437 465.837 59.2546 465.387 59.608C464.936 59.9587 464.389 60.1349 463.747 60.1366ZM463.745 59.1991C464.381 59.1974 464.875 58.8892 465.225 58.2747C465.576 57.6601 465.75 56.7846 465.747 55.6483C465.745 54.8926 465.662 54.2493 465.499 53.7185C465.338 53.1877 465.107 52.7835 464.805 52.5059C464.506 52.2283 464.146 52.09 463.726 52.0912C463.095 52.0928 462.603 52.4052 462.25 53.0284C461.896 53.6486 461.721 54.5255 461.724 55.659C461.726 56.4147 461.807 57.0565 461.968 57.5845C462.128 58.1125 462.358 58.5139 462.657 58.7886C462.959 59.0634 463.322 59.2002 463.745 59.1991ZM471.35 60.1162C470.787 60.1177 470.285 60.0225 469.845 59.8305C469.407 59.6385 469.058 59.371 468.798 59.0279C468.542 58.682 468.402 58.2804 468.378 57.8231L469.451 57.8202C469.475 58.1014 469.572 58.344 469.743 58.5481C469.914 58.7493 470.138 58.905 470.413 59.0151C470.689 59.1251 470.995 59.1797 471.33 59.1788C471.705 59.1778 472.037 59.1116 472.327 58.9801C472.616 58.8486 472.843 58.6662 473.007 58.4328C473.171 58.1994 473.253 57.9293 473.252 57.6225C473.251 57.3015 473.171 57.019 473.011 56.7751C472.851 56.5284 472.618 56.3358 472.311 56.1975C472.004 56.0591 471.628 55.9905 471.185 55.9917L470.486 55.9935L470.484 55.056L471.183 55.0542C471.529 55.0532 471.833 54.9899 472.094 54.8642C472.358 54.7385 472.563 54.5618 472.711 54.3342C472.86 54.1065 472.935 53.8393 472.934 53.5324C472.933 53.237 472.867 52.9801 472.736 52.7617C472.605 52.5433 472.42 52.3733 472.181 52.2518C471.945 52.1302 471.666 52.0699 471.345 52.0708C471.044 52.0716 470.76 52.1277 470.493 52.2392C470.229 52.3479 470.014 52.5062 469.847 52.714C469.68 52.919 469.589 53.1664 469.576 53.4562L468.553 53.4589C468.569 53.0015 468.706 52.6006 468.963 52.2561C469.221 51.9088 469.558 51.6381 469.975 51.4438C470.395 51.2494 470.857 51.1516 471.36 51.1503C471.899 51.1488 472.363 51.257 472.75 51.4747C473.137 51.6896 473.434 51.9743 473.643 52.3288C473.851 52.6834 473.956 53.0666 473.957 53.4786C473.958 53.97 473.83 54.3894 473.572 54.7367C473.318 55.084 472.97 55.325 472.53 55.4597L472.53 55.5278C473.082 55.6173 473.513 55.8505 473.824 56.2275C474.134 56.6017 474.29 57.0658 474.292 57.6197C474.293 58.0942 474.165 58.5206 473.907 58.8992C473.653 59.2749 473.304 59.5712 472.862 59.7883C472.419 60.0054 471.915 60.1147 471.35 60.1162ZM482.187 56.5599L483.195 56.5572L483.2 58.3452L482.192 58.3479L482.187 56.5599ZM486.922 50.0432L487.918 50.0406L487.947 60.8885L486.951 60.8912L486.922 50.0432ZM479.302 58.8476L479.167 58.02C481.219 58.0025 483.919 57.9713 486.258 57.665L486.332 58.3968C483.922 58.8113 481.306 58.8423 479.302 58.8476ZM479.378 51.3834L485.966 51.3658L485.968 52.1698L479.38 52.1874L479.378 51.3834ZM482.669 52.8026C484.229 52.7984 485.287 53.5876 485.291 54.7996C485.294 56.0236 484.24 56.8064 482.68 56.8106C481.132 56.8147 480.074 56.0376 480.071 54.8136C480.068 53.6016 481.121 52.8068 482.669 52.8026ZM482.671 53.5706C481.699 53.5732 481.017 54.067 481.019 54.811C481.021 55.555 481.706 56.0452 482.678 56.0426C483.662 56.04 484.345 55.5461 484.343 54.8021C484.341 54.0581 483.655 53.568 482.671 53.5706ZM482.17 50.0559L483.166 50.0533L483.171 51.8173L482.175 51.8199L482.17 50.0559ZM493.212 55.4864L494.208 55.4837L494.214 57.8957L493.218 57.8984L493.212 55.4864ZM498.009 50.0136L499.005 50.0109L499.027 58.2669L498.031 58.2695L498.009 50.0136ZM491.627 59.8227L499.295 59.8022L499.297 60.6181L491.63 60.6387L491.627 59.8227ZM491.621 57.4827L492.617 57.48L492.624 60.048L491.628 60.0507L491.621 57.4827ZM490.213 55.8664L490.079 55.0508C492.082 55.0454 494.77 55.0142 497.074 54.7081L497.148 55.4399C494.809 55.8181 492.181 55.8612 490.213 55.8664ZM495.818 56.4274L498.278 56.4209L498.28 57.1529L495.82 57.1594L495.818 56.4274ZM493.594 50.4694C495.178 50.4651 496.26 51.2062 496.263 52.3462C496.266 53.4982 495.188 54.2451 493.604 54.2494C492.008 54.2536 490.926 53.5125 490.923 52.3605C490.92 51.2205 491.998 50.4736 493.594 50.4694ZM493.596 51.2134C492.576 51.2161 491.869 51.662 491.871 52.358C491.873 53.054 492.582 53.4961 493.602 53.4934C494.61 53.4907 495.317 53.0448 495.315 52.3488C495.313 51.6528 494.604 51.2107 493.596 51.2134ZM508.496 49.9735L509.504 49.9708L509.533 60.8308L508.525 60.8335L508.496 49.9735ZM509.24 54.3755L511.244 54.3702L511.246 55.1982L509.242 55.2035L509.24 54.3755ZM505.727 51.1569L506.699 51.1543C506.707 54.2383 505.299 57.0261 501.8 58.7994L501.246 58.0329C504.242 56.5009 505.735 54.1809 505.728 51.3129L505.727 51.1569ZM501.731 51.1676L506.243 51.1555L506.245 51.9715L501.733 51.9836L501.731 51.1676ZM520.087 49.9545L521.095 49.9518L521.111 55.7718L520.103 55.7745L520.087 49.9545ZM514.116 56.3305L515.1 56.3279L515.104 57.6478L520.132 57.6344L520.128 56.3144L521.112 56.3118L521.124 60.6558L514.128 60.6745L514.116 56.3305ZM515.106 58.4398L515.11 59.8678L520.138 59.8544L520.134 58.4264L515.106 58.4398ZM515.276 50.4834C516.92 50.479 518.099 51.4958 518.103 52.9718C518.107 54.4598 516.934 55.4829 515.29 55.4873C513.646 55.4917 512.455 54.4749 512.451 52.9869C512.447 51.5109 513.632 50.4878 515.276 50.4834ZM515.279 51.3114C514.199 51.3142 513.421 52.0003 513.423 52.9843C513.426 53.9683 514.208 54.6502 515.288 54.6473C516.368 54.6445 517.146 53.9584 517.143 52.9744C517.141 51.9904 516.359 51.3085 515.279 51.3114ZM529.425 54.4295L530.421 54.4269L530.426 56.0708L529.43 56.0735L529.425 54.4295ZM529.882 50.4203C531.454 50.4161 532.561 51.2771 532.564 52.5611C532.568 53.8451 531.466 54.7001 529.894 54.7043C528.334 54.7084 527.228 53.8594 527.224 52.5754C527.221 51.2914 528.322 50.4245 529.882 50.4203ZM529.884 51.1883C528.864 51.191 528.158 51.7569 528.16 52.5729C528.162 53.4009 528.872 53.951 529.892 53.9483C530.924 53.9455 531.63 53.3916 531.628 52.5636C531.626 51.7476 530.916 51.1855 529.884 51.1883ZM534.021 49.9292L535.017 49.9265L535.039 58.2185L534.043 58.2212L534.021 49.9292ZM534.607 53.5876L536.611 53.5823L536.613 54.4103L534.609 54.4156L534.607 53.5876ZM528.179 59.7129L535.427 59.6935L535.43 60.5215L528.182 60.5409L528.179 59.7129ZM528.173 57.5289L529.169 57.5262L529.176 60.0702L528.18 60.0729L528.173 57.5289ZM526.743 56.6327L526.609 55.8171C528.517 55.812 531.157 55.7809 533.364 55.439L533.438 56.1708C531.171 56.5969 528.603 56.6277 526.743 56.6327ZM540.409 56.2601L541.393 56.2575L541.4 58.9215L540.416 58.9241L540.409 56.2601ZM543.877 56.2269L544.849 56.2243L544.856 58.9002L543.884 58.9028L543.877 56.2269ZM537.679 58.5954L547.507 58.5692L547.51 59.3971L537.682 59.4234L537.679 58.5954ZM538.846 50.7083L546.274 50.6884L546.283 53.9644L539.875 53.9816L539.881 56.1655L538.897 56.1682L538.889 53.1922L545.297 53.175L545.292 51.4951L538.848 51.5123L538.846 50.7083ZM538.896 55.7242L546.54 55.7037L546.542 56.5197L538.898 56.5402L538.896 55.7242Z" fill="#777777"/>
<rect x="497.461" y="0.5" width="11" height="7.98257" rx="1.5" stroke="#777777"/>
<rect x="501.461" y="2.49609" width="3" height="3.99032" stroke="#777777"/>
<rect x="492.461" y="11.4805" width="20.9984" height="14.969" stroke="#777777"/>
<rect x="491.961" y="27.9453" width="10" height="0.998063" fill="#777777"/>
<rect x="491.961" y="31.9375" width="15.9988" height="0.998063" fill="#777777"/>
<rect x="498.961" y="35.9297" width="11" height="0.998063" fill="#777777"/>
<rect x="491.961" y="35.9297" width="6" height="0.998063" fill="#777777"/>
<rect x="502.961" y="27.9453" width="4" height="0.998063" fill="#777777"/>
<rect x="507.961" y="27.9453" width="3" height="0.998063" fill="#777777"/>
<mask id="path-22-inside-3_56767_47501" fill="white">
<path fill-rule="evenodd" clip-rule="evenodd" d="M521.029 26.2418C520.638 25.8517 520.005 25.8517 519.614 26.2418L514.689 31.1572L513.083 29.5537C512.692 29.1635 512.058 29.1635 511.667 29.5537L510.254 30.9638C509.863 31.3539 509.863 31.9865 510.254 32.3766L513.596 35.7122C513.619 35.7353 513.643 35.757 513.668 35.7774L514.693 36.8L522.442 29.0649C522.833 28.6747 522.833 28.0422 522.442 27.652L521.029 26.2418Z"/>
</mask>
<path d="M519.614 26.2418L520.32 26.9496V26.9496L519.614 26.2418ZM521.029 26.2418L521.736 25.5341L521.736 25.5341L521.029 26.2418ZM514.689 31.1572L513.983 31.865L514.689 32.5701L515.396 31.865L514.689 31.1572ZM513.083 29.5537L513.789 28.8459L513.083 29.5537ZM511.667 29.5537L510.961 28.8459L510.961 28.8459L511.667 29.5537ZM510.254 30.9638L510.961 31.6716L510.961 31.6716L510.254 30.9638ZM510.254 32.3766L510.961 31.6688L510.961 31.6688L510.254 32.3766ZM513.596 35.7122L514.303 35.0044L514.303 35.0044L513.596 35.7122ZM513.668 35.7774L514.374 35.0696L514.341 35.0357L514.303 35.0053L513.668 35.7774ZM514.693 36.8L513.986 37.5077L514.693 38.2129L515.399 37.5077L514.693 36.8ZM522.442 29.0649L523.148 29.7727V29.7727L522.442 29.0649ZM522.442 27.652L523.148 26.9442V26.9442L522.442 27.652ZM520.32 26.9496C520.321 26.9487 520.321 26.9486 520.321 26.9488C520.321 26.949 520.32 26.9492 520.32 26.9493C520.32 26.9495 520.32 26.9492 520.321 26.9492C520.323 26.9492 520.323 26.9495 520.323 26.9493C520.323 26.9492 520.322 26.949 520.322 26.9488C520.322 26.9486 520.322 26.9487 520.323 26.9496L521.736 25.5341C520.954 24.7543 519.689 24.7543 518.907 25.5341L520.32 26.9496ZM515.396 31.865L520.32 26.9496L518.907 25.5341L513.983 30.4494L515.396 31.865ZM512.376 30.2615L513.983 31.865L515.396 30.4494L513.789 28.8459L512.376 30.2615ZM512.373 30.2615C512.374 30.2606 512.375 30.2604 512.374 30.2607C512.374 30.2609 512.374 30.2611 512.373 30.2612C512.373 30.2614 512.373 30.2611 512.375 30.2611C512.376 30.2611 512.377 30.2614 512.376 30.2612C512.376 30.2611 512.376 30.2609 512.375 30.2607C512.375 30.2604 512.375 30.2606 512.376 30.2615L513.789 28.8459C513.008 28.0661 511.742 28.0661 510.961 28.8459L512.373 30.2615ZM510.961 31.6716L512.373 30.2615L510.961 28.8459L509.548 30.256L510.961 31.6716ZM510.961 31.6688C510.96 31.6679 510.96 31.6677 510.96 31.6682C510.96 31.6686 510.96 31.6692 510.961 31.6697C510.961 31.6707 510.961 31.6709 510.961 31.6702C510.961 31.6696 510.961 31.6697 510.961 31.6707C510.96 31.6713 510.96 31.6718 510.96 31.6723C510.96 31.6727 510.96 31.6725 510.961 31.6716L509.548 30.256C508.765 31.0368 508.765 32.3036 509.548 33.0844L510.961 31.6688ZM514.303 35.0044L510.961 31.6688L509.548 33.0844L512.89 36.42L514.303 35.0044ZM514.303 35.0053C514.303 35.0052 514.303 35.0049 514.303 35.0044L512.89 36.42C512.936 36.4657 512.983 36.5089 513.033 36.5495L514.303 35.0053ZM515.399 36.0922L514.374 35.0696L512.962 36.4852L513.986 37.5077L515.399 36.0922ZM521.736 28.3571L513.986 36.0922L515.399 37.5077L523.148 29.7727L521.736 28.3571ZM521.736 28.3598C521.737 28.3607 521.737 28.3609 521.736 28.3604C521.736 28.36 521.736 28.3594 521.735 28.3589C521.735 28.3579 521.735 28.3578 521.735 28.3584C521.735 28.3591 521.735 28.359 521.735 28.358C521.736 28.3574 521.736 28.3569 521.736 28.3565C521.737 28.356 521.737 28.3562 521.736 28.3571L523.148 29.7727C523.931 28.9918 523.931 27.7251 523.148 26.9442L521.736 28.3598ZM520.323 26.9496L521.736 28.3598L523.148 26.9442L521.736 25.5341L520.323 26.9496Z" fill="#777777" mask="url(#path-22-inside-3_56767_47501)"/>
<path fill-rule="evenodd" clip-rule="evenodd" d="M490.961 3.66016H497.71V4.66016H490.961C489.856 4.66016 488.961 5.55559 488.961 6.66016V38.5866C488.961 39.6911 489.856 40.5866 490.961 40.5866H514.959C516.063 40.5866 516.959 39.6911 516.959 38.5866V33.7135L517.959 32.7153V38.5866C517.959 40.2434 516.616 41.5866 514.959 41.5866H490.961C489.304 41.5866 487.961 40.2434 487.961 38.5866V6.66016C487.961 5.0033 489.304 3.66016 490.961 3.66016ZM517.959 28.4808V6.66016C517.959 5.0033 516.616 3.66016 514.959 3.66016H508.21V4.66016H514.959C516.063 4.66016 516.959 5.55559 516.959 6.66016V29.4789L517.959 28.4808Z" fill="#777777"/>
<rect x="500.461" y="14.4727" width="5" height="4.98838" rx="2.49419" stroke="#777777"/>
<path d="M498.461 22.9609C498.461 21.5802 499.58 20.4609 500.961 20.4609H504.961C506.342 20.4609 507.461 21.5802 507.461 22.9609V26.4474H498.461V22.9609Z" stroke="#777777"/>
<line x1="97.9922" y1="19.4609" x2="197.985" y2="19.4609" stroke="#777777"/>
<line x1="337.977" y1="19.4609" x2="437.969" y2="19.4609" stroke="#777777"/>
</svg>
