<svg width="550" height="63" viewBox="0 0 550 63" fill="none" xmlns="http://www.w3.org/2000/svg">
<path d="M3.75 60.0265C3.10795 60.0265 2.56108 59.8518 2.10938 59.5024C1.65767 59.1501 1.3125 58.6402 1.07386 57.9726C0.835227 57.3021 0.715909 56.4925 0.715909 55.5436C0.715909 54.6004 0.835227 53.795 1.07386 53.1274C1.31534 52.4569 1.66193 51.9456 2.11364 51.5933C2.56818 51.2382 3.11364 51.0606 3.75 51.0606C4.38636 51.0606 4.9304 51.2382 5.3821 51.5933C5.83665 51.9456 6.18324 52.4569 6.42188 53.1274C6.66335 53.795 6.78409 54.6004 6.78409 55.5436C6.78409 56.4925 6.66477 57.3021 6.42614 57.9726C6.1875 58.6402 5.84233 59.1501 5.39062 59.5024C4.93892 59.8518 4.39205 60.0265 3.75 60.0265ZM3.75 59.089C4.38636 59.089 4.88068 58.7822 5.23295 58.1686C5.58523 57.555 5.76136 56.68 5.76136 55.5436C5.76136 54.7879 5.6804 54.1444 5.51847 53.6132C5.35938 53.0819 5.12926 52.6771 4.82812 52.3987C4.52983 52.1203 4.17045 51.9811 3.75 51.9811C3.11932 51.9811 2.62642 52.2922 2.27131 52.9143C1.91619 53.5336 1.73864 54.4101 1.73864 55.5436C1.73864 56.2993 1.81818 56.9413 1.97727 57.4697C2.13636 57.9981 2.36506 58.4001 2.66335 58.6757C2.96449 58.9513 3.3267 59.089 3.75 59.089ZM11.4716 51.18V59.9072H10.4148V52.2879H10.3636L8.23295 53.7027V52.6288L10.4148 51.18H11.4716ZM24.9251 49.9832H25.9211V60.8552H24.9251V49.9832ZM20.1971 50.8232C21.8051 50.8232 22.9571 52.2992 22.9571 54.6032C22.9571 56.9192 21.8051 58.3952 20.1971 58.3952C18.6011 58.3952 17.4491 56.9192 17.4491 54.6032C17.4491 52.2992 18.6011 50.8232 20.1971 50.8232ZM20.1971 51.7232C19.1411 51.7232 18.3971 52.8512 18.3971 54.6032C18.3971 56.3672 19.1411 57.5192 20.1971 57.5192C21.2651 57.5192 21.9971 56.3672 21.9971 54.6032C21.9971 52.8512 21.2651 51.7232 20.1971 51.7232ZM30.5042 53.6672H31.4882V55.7192H30.5042V53.6672ZM34.4882 53.6672H35.4722V55.7192H34.4882V53.6672ZM28.0802 55.3592H37.8842V56.1632H28.0802V55.3592ZM32.9762 56.9792C35.3042 56.9792 36.6962 57.6632 36.6962 58.8992C36.6962 60.1352 35.3042 60.8312 32.9762 60.8312C30.6482 60.8312 29.2562 60.1352 29.2562 58.8992C29.2562 57.6632 30.6482 56.9792 32.9762 56.9792ZM32.9762 57.7472C31.2842 57.7472 30.2642 58.1672 30.2642 58.8992C30.2642 59.6432 31.2842 60.0512 32.9762 60.0512C34.6802 60.0512 35.6882 59.6432 35.6882 58.8992C35.6882 58.1672 34.6802 57.7472 32.9762 57.7472ZM32.9882 50.1872C35.3402 50.1872 36.8042 50.9432 36.8042 52.2152C36.8042 53.4752 35.3402 54.2192 32.9882 54.2192C30.6242 54.2192 29.1722 53.4752 29.1722 52.2152C29.1722 50.9432 30.6242 50.1872 32.9882 50.1872ZM32.9882 50.9672C31.2602 50.9672 30.1922 51.4232 30.1922 52.2152C30.1922 52.9952 31.2602 53.4512 32.9882 53.4512C34.7162 53.4512 35.7842 52.9952 35.7842 52.2152C35.7842 51.4232 34.7162 50.9672 32.9882 50.9672ZM47.2433 51.6392H49.1273V52.4792H47.2433V51.6392ZM47.2433 53.9672H49.1273V54.7952H47.2433V53.9672ZM46.5473 49.9952H47.5433V56.4392H46.5473V49.9952ZM40.4993 56.9552H47.5433V60.8432H46.5473V57.7592H40.4993V56.9552ZM42.1553 50.6312C43.7873 50.6312 44.9873 51.6872 44.9873 53.2112C44.9873 54.7232 43.7873 55.7672 42.1553 55.7672C40.5233 55.7672 39.3232 54.7232 39.3232 53.2112C39.3232 51.6872 40.5233 50.6312 42.1553 50.6312ZM42.1553 51.4832C41.0753 51.4832 40.2952 52.1792 40.2952 53.2112C40.2952 54.2312 41.0753 54.9392 42.1553 54.9392C43.2353 54.9392 44.0153 54.2312 44.0153 53.2112C44.0153 52.1792 43.2353 51.4832 42.1553 51.4832ZM50.7463 50.8352H55.5463V51.6512H50.7463V50.8352ZM52.3783 53.2592H53.3623V55.9712H52.3783V53.2592ZM55.1503 50.8352H56.1343V51.4112C56.1343 52.1192 56.1343 53.1992 55.8463 54.6272L54.8743 54.5192C55.1503 53.0912 55.1503 52.1072 55.1503 51.4112V50.8352ZM57.6103 49.9952H58.6063V58.1672H57.6103V49.9952ZM58.1503 53.5232H60.1543V54.3512H58.1503V53.5232ZM51.7543 59.7872H58.9543V60.6032H51.7543V59.7872ZM51.7543 57.4112H52.7383V60.0392H51.7543V57.4112ZM50.1943 56.4392L50.0863 55.6232C52.0183 55.6232 54.6823 55.5752 56.8783 55.2752L56.9503 55.9952C54.6943 56.3912 52.1023 56.4392 50.1943 56.4392ZM64.5844 55.3352H74.3884V56.1512H64.5844V55.3352ZM68.9884 53.5952H69.9724V55.6712H68.9884V53.5952ZM65.8204 53.2832H73.2484V54.0992H65.8204V53.2832ZM65.8204 50.4872H73.1644V51.2912H66.8044V53.7632H65.8204V50.4872ZM69.4684 56.9312C71.7844 56.9312 73.1884 57.6392 73.1884 58.8752C73.1884 60.1352 71.7844 60.8312 69.4684 60.8312C67.1524 60.8312 65.7484 60.1352 65.7484 58.8752C65.7484 57.6392 67.1524 56.9312 69.4684 56.9312ZM69.4684 57.6992C67.7764 57.6992 66.7564 58.1312 66.7564 58.8752C66.7564 59.6312 67.7764 60.0512 69.4684 60.0512C71.1724 60.0512 72.1804 59.6312 72.1804 58.8752C72.1804 58.1312 71.1724 57.6992 69.4684 57.6992ZM79.1394 50.7752C80.8314 50.7752 82.0434 51.8192 82.0434 53.3312C82.0434 54.8552 80.8314 55.8992 79.1394 55.8992C77.4474 55.8992 76.2234 54.8552 76.2234 53.3312C76.2234 51.8192 77.4474 50.7752 79.1394 50.7752ZM79.1394 51.6392C78.0114 51.6392 77.1954 52.3232 77.1954 53.3312C77.1954 54.3392 78.0114 55.0352 79.1394 55.0352C80.2554 55.0352 81.0714 54.3392 81.0714 53.3312C81.0714 52.3232 80.2554 51.6392 79.1394 51.6392ZM83.4594 49.9832H84.4554V60.8552H83.4594V49.9832ZM75.8154 58.4792L75.6714 57.6512C77.6514 57.6512 80.3874 57.6392 82.7514 57.2672L82.8354 57.9992C80.3994 58.4672 77.7474 58.4792 75.8154 58.4792Z" fill="#2C39B5"/>
<path fill-rule="evenodd" clip-rule="evenodd" d="M49.9972 1H39.9972V3.65763L49.9972 3.65763V1ZM39.9972 0C39.4449 0 38.9972 0.447716 38.9972 1V1.99613H32.9978C31.3409 1.99613 29.9978 3.33927 29.9978 4.99613V36.9225C29.9978 38.5794 31.3409 39.9225 32.9978 39.9225H56.9956C58.6525 39.9225 59.9956 38.5794 59.9956 36.9225V4.99613C59.9956 3.33927 58.6525 1.99613 56.9956 1.99613H50.9972V1C50.9972 0.447715 50.5495 0 49.9972 0H39.9972ZM50.9972 2.99613V3.65763C50.9972 4.20991 50.5495 4.65763 49.9972 4.65763H39.9972C39.4449 4.65763 38.9972 4.20991 38.9972 3.65763V2.99613H32.9978C31.8932 2.99613 30.9978 3.89156 30.9978 4.99613V36.9225C30.9978 38.0271 31.8932 38.9225 32.9978 38.9225H56.9956C58.1002 38.9225 58.9956 38.0271 58.9956 36.9225V4.99613C58.9956 3.89156 58.1002 2.99613 56.9956 2.99613H50.9972ZM33.4978 12.8076V9.14996H37.7478V12.8076H33.4978ZM33.2539 8.14996C33.0679 8.14996 32.8811 8.21672 32.7364 8.34825C32.5902 8.48121 32.4978 8.67231 32.4978 8.88284V13.0747C32.4978 13.2852 32.5902 13.4763 32.7364 13.6093C32.8811 13.7408 33.0679 13.8076 33.2539 13.8076H37.9917C38.1777 13.8076 38.3645 13.7408 38.5092 13.6093C38.6554 13.4763 38.7478 13.2852 38.7478 13.0747V8.88284C38.7478 8.67231 38.6554 8.48121 38.5092 8.34825C38.3645 8.21672 38.1777 8.14996 37.9917 8.14996H33.2539ZM33.4978 17.1345V20.7921H37.7478V17.1345H33.4978ZM32.7364 16.3328C32.8811 16.2012 33.0679 16.1345 33.2539 16.1345H37.9917C38.1777 16.1345 38.3645 16.2012 38.5092 16.3328C38.6554 16.4657 38.7478 16.6568 38.7478 16.8673V21.0592C38.7478 21.2698 38.6554 21.4608 38.5092 21.5938C38.3645 21.7253 38.1777 21.7921 37.9917 21.7921H33.2539C33.0679 21.7921 32.8811 21.7253 32.7364 21.5938C32.5902 21.4608 32.4978 21.2698 32.4978 21.0592V16.8673C32.4978 16.6568 32.5902 16.4657 32.7364 16.3328ZM33.4978 28.7766V25.119H37.7478V28.7766H33.4978ZM33.2539 24.119C33.0679 24.119 32.8811 24.1857 32.7364 24.3173C32.5902 24.4502 32.4978 24.6413 32.4978 24.8519V29.0437C32.4978 29.2543 32.5902 29.4453 32.7364 29.5783C32.8811 29.7098 33.0679 29.7766 33.2539 29.7766H37.9917C38.1777 29.7766 38.3645 29.7098 38.5092 29.5783C38.6554 29.4453 38.7478 29.2543 38.7478 29.0437V24.8519C38.7478 24.6413 38.6554 24.4502 38.5092 24.3173C38.3645 24.1857 38.1777 24.119 37.9917 24.119H33.2539ZM33.4978 36.7611V33.1035H37.7478V36.7611H33.4978ZM33.2539 32.1035C33.0679 32.1035 32.8811 32.1702 32.7364 32.3018C32.5902 32.4347 32.4978 32.6258 32.4978 32.8364V37.0282C32.4978 37.2388 32.5902 37.4299 32.7364 37.5628C32.8811 37.6943 33.0679 37.7611 33.2539 37.7611H37.9917C38.1777 37.7611 38.3645 37.6943 38.5092 37.5628C38.6554 37.4299 38.7478 37.2388 38.7478 37.0282V32.8364C38.7478 32.6258 38.6554 32.4347 38.5092 32.3018C38.3645 32.1702 38.1777 32.1035 37.9917 32.1035H33.2539ZM40.747 26.9477C40.747 26.6716 40.9709 26.4477 41.247 26.4477H56.2459C56.5221 26.4477 56.7459 26.6716 56.7459 26.9477C56.7459 27.2238 56.5221 27.4477 56.2459 27.4477H41.247C40.9709 27.4477 40.747 27.2238 40.747 26.9477ZM41.247 34.7648C40.9709 34.7648 40.747 34.9887 40.747 35.2648C40.747 35.541 40.9709 35.7648 41.247 35.7648H56.2459C56.5221 35.7648 56.7459 35.541 56.7459 35.2648C56.7459 34.9887 56.5221 34.7648 56.2459 34.7648H41.247ZM40.747 19.2958C40.747 19.0197 40.9709 18.7958 41.247 18.7958H56.2459C56.5221 18.7958 56.7459 19.0197 56.7459 19.2958C56.7459 19.5719 56.5221 19.7958 56.2459 19.7958H41.247C40.9709 19.7958 40.747 19.5719 40.747 19.2958ZM41.247 10.8113C40.9709 10.8113 40.747 11.0352 40.747 11.3113C40.747 11.5874 40.9709 11.8113 41.247 11.8113H56.2459C56.5221 11.8113 56.7459 11.5874 56.7459 11.3113C56.7459 11.0352 56.5221 10.8113 56.2459 10.8113H41.247Z" fill="#2C39B5"/>
<path d="M233.733 60.0265C233.091 60.0265 232.544 59.8518 232.093 59.5024C231.641 59.1501 231.296 58.6402 231.057 57.9726C230.819 57.3021 230.699 56.4925 230.699 55.5436C230.699 54.6004 230.819 53.795 231.057 53.1274C231.299 52.4569 231.645 51.9456 232.097 51.5933C232.551 51.2382 233.097 51.0606 233.733 51.0606C234.37 51.0606 234.914 51.2382 235.365 51.5933C235.82 51.9456 236.167 52.4569 236.405 53.1274C236.647 53.795 236.767 54.6004 236.767 55.5436C236.767 56.4925 236.648 57.3021 236.409 57.9726C236.171 58.6402 235.826 59.1501 235.374 59.5024C234.922 59.8518 234.375 60.0265 233.733 60.0265ZM233.733 59.089C234.37 59.089 234.864 58.7822 235.216 58.1686C235.569 57.555 235.745 56.68 235.745 55.5436C235.745 54.7879 235.664 54.1444 235.502 53.6132C235.343 53.0819 235.113 52.6771 234.811 52.3987C234.513 52.1203 234.154 51.9811 233.733 51.9811C233.103 51.9811 232.61 52.2922 232.255 52.9143C231.899 53.5336 231.722 54.4101 231.722 55.5436C231.722 56.2993 231.801 56.9413 231.961 57.4697C232.12 57.9981 232.348 58.4001 232.647 58.6757C232.948 58.9513 233.31 59.089 233.733 59.089ZM238.387 59.9072V59.1402L241.267 55.9868C241.605 55.6175 241.884 55.2964 242.103 55.0237C242.321 54.7481 242.483 54.4896 242.588 54.2481C242.696 54.0038 242.75 53.7481 242.75 53.4811C242.75 53.1743 242.676 52.9086 242.529 52.6842C242.384 52.4598 242.185 52.2865 241.932 52.1643C241.679 52.0422 241.395 51.9811 241.08 51.9811C240.745 51.9811 240.452 52.0507 240.202 52.1899C239.955 52.3263 239.763 52.518 239.627 52.7652C239.493 53.0123 239.426 53.3021 239.426 53.6345H238.421C238.421 53.1231 238.539 52.6743 238.774 52.2879C239.01 51.9015 239.331 51.6004 239.738 51.3845C240.147 51.1686 240.605 51.0606 241.114 51.0606C241.625 51.0606 242.078 51.1686 242.473 51.3845C242.868 51.6004 243.178 51.8916 243.402 52.2581C243.627 52.6246 243.739 53.0322 243.739 53.4811C243.739 53.8021 243.681 54.116 243.564 54.4229C243.451 54.7268 243.252 55.0663 242.968 55.4413C242.686 55.8135 242.296 56.268 241.796 56.805L239.836 58.9015V58.9697H243.892V59.9072H238.387ZM251.808 56.4992H252.816V58.2872H251.808V56.4992ZM256.56 49.9952H257.556V60.8432H256.56V49.9952ZM248.916 58.7792L248.784 57.9512C250.836 57.9392 253.536 57.9152 255.876 57.6152L255.948 58.3472C253.536 58.7552 250.92 58.7792 248.916 58.7792ZM249.012 51.3152H255.6V52.1192H249.012V51.3152ZM252.3 52.7432C253.86 52.7432 254.916 53.5352 254.916 54.7472C254.916 55.9712 253.86 56.7512 252.3 56.7512C250.752 56.7512 249.696 55.9712 249.696 54.7472C249.696 53.5352 250.752 52.7432 252.3 52.7432ZM252.3 53.5112C251.328 53.5112 250.644 54.0032 250.644 54.7472C250.644 55.4912 251.328 55.9832 252.3 55.9832C253.284 55.9832 253.968 55.4912 253.968 54.7472C253.968 54.0032 253.284 53.5112 252.3 53.5112ZM251.808 49.9952H252.804V51.7592H251.808V49.9952ZM262.835 55.4552H263.831V57.8672H262.835V55.4552ZM267.647 49.9952H268.643V58.2512H267.647V49.9952ZM261.239 59.7872H268.907V60.6032H261.239V59.7872ZM261.239 57.4472H262.235V60.0152H261.239V57.4472ZM259.835 55.8272L259.703 55.0112C261.707 55.0112 264.395 54.9872 266.699 54.6872L266.771 55.4192C264.431 55.7912 261.803 55.8272 259.835 55.8272ZM265.439 56.4032H267.899V57.1352H265.439V56.4032ZM263.231 50.4392C264.815 50.4392 265.895 51.1832 265.895 52.3232C265.895 53.4752 264.815 54.2192 263.231 54.2192C261.635 54.2192 260.555 53.4752 260.555 52.3232C260.555 51.1832 261.635 50.4392 263.231 50.4392ZM263.231 51.1832C262.211 51.1832 261.503 51.6272 261.503 52.3232C261.503 53.0192 262.211 53.4632 263.231 53.4632C264.239 53.4632 264.947 53.0192 264.947 52.3232C264.947 51.6272 264.239 51.1832 263.231 51.1832ZM276.586 52.8032H279.034V53.6312H276.586V52.8032ZM278.722 49.9952H279.718V56.4632H278.722V49.9952ZM276.154 56.7872C278.386 56.7872 279.766 57.5432 279.766 58.8152C279.766 60.0992 278.386 60.8312 276.154 60.8312C273.91 60.8312 272.53 60.0992 272.53 58.8152C272.53 57.5432 273.91 56.7872 276.154 56.7872ZM276.154 57.5672C274.522 57.5672 273.526 58.0232 273.526 58.8152C273.526 59.5952 274.522 60.0512 276.154 60.0512C277.786 60.0512 278.782 59.5952 278.782 58.8152C278.782 58.0232 277.786 57.5672 276.154 57.5672ZM273.562 51.0872H274.378V51.9632C274.378 53.9672 273.154 55.6832 271.354 56.3552L270.838 55.5632C272.446 54.9752 273.562 53.5232 273.562 51.9632V51.0872ZM273.754 51.0872H274.558V51.9632C274.558 53.3672 275.614 54.7112 277.186 55.2632L276.682 56.0552C274.918 55.4192 273.754 53.7872 273.754 51.9632V51.0872ZM271.138 50.7872H276.934V51.6032H271.138V50.7872ZM281.841 58.6352H291.669V59.4632H281.841V58.6352ZM286.233 56.0432H287.229V58.8752H286.233V56.0432ZM282.993 50.7632H283.977V52.6952H289.509V50.7632H290.493V56.3072H282.993V50.7632ZM283.977 53.4992V55.4912H289.509V53.4992H283.977ZM304.139 49.9952H305.147V55.8152H304.139V49.9952ZM298.151 56.3552H299.135V57.6752H304.163V56.3552H305.147V60.6992H298.151V56.3552ZM299.135 58.4672V59.8952H304.163V58.4672H299.135ZM299.327 50.5112C300.971 50.5112 302.147 51.5312 302.147 53.0072C302.147 54.4952 300.971 55.5152 299.327 55.5152C297.683 55.5152 296.495 54.4952 296.495 53.0072C296.495 51.5312 297.683 50.5112 299.327 50.5112ZM299.327 51.3392C298.247 51.3392 297.467 52.0232 297.467 53.0072C297.467 53.9912 298.247 54.6752 299.327 54.6752C300.407 54.6752 301.187 53.9912 301.187 53.0072C301.187 52.0232 300.407 51.3392 299.327 51.3392ZM307.738 55.3712H308.518C310.654 55.3712 311.71 55.3352 313.006 55.1072L313.114 55.9112C311.77 56.1512 310.69 56.1872 308.518 56.1872H307.738V55.3712ZM307.714 50.6432H312.394V53.7272H308.722V55.8632H307.738V52.9472H311.41V51.4592H307.714V50.6432ZM315.214 50.0072H316.21V56.6672H315.214V50.0072ZM313.114 51.6032H315.442V52.4192H313.114V51.6032ZM313.114 53.8472H315.442V54.6632H313.114V53.8472ZM308.95 57.2552H316.21V60.8672H315.214V58.0712H308.95V57.2552Z" fill="#777777"/>
<rect x="259.481" y="1.49805" width="14.9988" height="14.969" rx="7.4845" stroke="#777777"/>
<rect y="0.706447" width="1.9971" height="15.9835" transform="matrix(0.707766 0.706447 -0.707766 0.706447 289.742 18.5863)" stroke="#777777"/>
<mask id="path-6-inside-1_54972_26332" fill="white">
<path d="M291.364 20.4961L294.192 23.3191L282.171 35.3171L279.343 32.4941L291.364 20.4961Z"/>
</mask>
<path d="M294.192 23.3191L294.9 24.0256L295.607 23.3191L294.9 22.6127L294.192 23.3191ZM282.171 35.3171L281.464 36.0236L282.171 36.73L282.879 36.0236L282.171 35.3171ZM290.656 21.2025L293.484 24.0256L294.9 22.6127L292.071 19.7896L290.656 21.2025ZM293.484 22.6127L281.464 34.6107L282.879 36.0236L294.9 24.0256L293.484 22.6127ZM282.879 34.6107L280.051 31.7876L278.635 33.2005L281.464 36.0236L282.879 34.6107Z" fill="#777777" mask="url(#path-6-inside-1_54972_26332)"/>
<mask id="path-8-inside-2_54972_26332" fill="white">
<path d="M289.949 17.6737C290.34 17.2836 290.973 17.2836 291.364 17.6737L294.898 21.2012C295.289 21.5913 295.289 22.2239 294.898 22.6141L293.485 24.0249L288.535 19.0846L289.949 17.6737Z"/>
</mask>
<path d="M289.241 16.9673C290.023 16.187 291.29 16.187 292.072 16.9673L295.606 20.4947C296.388 21.2751 296.388 22.5402 295.606 23.3205L294.191 21.9076L290.656 18.3802L289.241 16.9673ZM293.485 24.0249L288.535 19.0846L293.485 24.0249ZM287.827 18.3781L289.241 16.9673C290.023 16.187 291.29 16.187 292.072 16.9673L290.656 18.3802L289.243 19.791L287.827 18.3781ZM295.606 20.4947C296.388 21.2751 296.388 22.5402 295.606 23.3205L294.193 24.7314L292.777 23.3185L294.191 21.9076L295.606 20.4947Z" fill="#777777" mask="url(#path-8-inside-2_54972_26332)"/>
<path d="M277.222 31.0822L277.93 30.3765L282.172 34.611L281.465 35.3168L275.455 37.0812L277.222 31.0822Z" stroke="#777777"/>
<path fill-rule="evenodd" clip-rule="evenodd" d="M279.838 28.0376C278.906 21.7731 273.504 16.9673 266.981 16.9673C259.81 16.9673 253.996 22.773 253.982 29.9402L253.982 29.9663V30.9402H254.982H277.03L276.98 30.8902L277.931 29.9402H254.982C254.996 23.3253 260.362 17.9673 266.981 17.9673C273.261 17.9673 278.414 22.7921 278.936 28.9373L279.838 28.0376Z" fill="#777777"/>
<path d="M463.749 60.1385C463.107 60.1403 462.56 59.967 462.107 59.6188C461.654 59.2677 461.308 58.7587 461.067 58.0917C460.827 57.4219 460.706 56.6126 460.703 55.6637C460.7 54.7205 460.818 53.9148 461.054 53.2466C461.294 52.5755 461.639 52.0632 462.09 51.7097C462.544 51.3534 463.089 51.1744 463.725 51.1727C464.361 51.171 464.906 51.3471 465.359 51.701C465.814 52.052 466.162 52.5625 466.402 53.2323C466.646 53.8992 466.769 54.7043 466.771 55.6475C466.774 56.5963 466.657 57.4063 466.42 58.0774C466.183 58.7457 465.839 59.2565 465.388 59.61C464.938 59.9606 464.391 60.1368 463.749 60.1385ZM463.747 59.201C464.383 59.1993 464.876 58.8912 465.227 58.2766C465.578 57.662 465.751 56.7866 465.748 55.6502C465.746 54.8945 465.664 54.2513 465.5 53.7205C465.34 53.1897 465.109 52.7854 464.807 52.5078C464.508 52.2302 464.148 52.092 463.727 52.0931C463.097 52.0948 462.605 52.4072 462.251 53.0303C461.898 53.6506 461.723 54.5275 461.726 55.661C461.728 56.4167 461.809 57.0585 461.97 57.5865C462.13 58.1145 462.36 58.5158 462.659 58.7906C462.961 59.0654 463.323 59.2022 463.747 59.201ZM471.351 60.1182C470.789 60.1197 470.287 60.0245 469.846 59.8325C469.408 59.6404 469.06 59.3729 468.8 59.0298C468.543 58.6839 468.403 58.2823 468.379 57.825L469.453 57.8221C469.477 58.1033 469.574 58.346 469.745 58.55C469.916 58.7513 470.139 58.9069 470.415 59.017C470.691 59.1271 470.997 59.1816 471.332 59.1807C471.707 59.1797 472.039 59.1135 472.328 58.9821C472.618 58.8506 472.845 58.6682 473.009 58.4348C473.173 58.2014 473.255 57.9313 473.254 57.6245C473.253 57.3034 473.173 57.021 473.013 56.7771C472.853 56.5304 472.62 56.3378 472.312 56.1994C472.005 56.061 471.63 55.9924 471.187 55.9936L470.488 55.9955L470.485 55.058L471.184 55.0561C471.531 55.0552 471.835 54.9919 472.096 54.8662C472.36 54.7405 472.565 54.5638 472.712 54.3361C472.862 54.1085 472.937 53.8412 472.936 53.5344C472.935 53.2389 472.869 52.982 472.738 52.7636C472.607 52.5452 472.421 52.3752 472.182 52.2537C471.946 52.1322 471.668 52.0719 471.347 52.0727C471.046 52.0735 470.762 52.1297 470.495 52.2412C470.231 52.3499 470.016 52.5081 469.848 52.7159C469.681 52.9209 469.591 53.1683 469.578 53.4581L468.555 53.4609C468.571 53.0035 468.708 52.6025 468.965 52.2581C469.223 51.9108 469.56 51.64 469.977 51.4457C470.397 51.2514 470.859 51.1536 471.361 51.1522C471.901 51.1508 472.364 51.2589 472.751 51.4766C473.138 51.6915 473.436 51.9762 473.644 52.3308C473.853 52.6853 473.957 53.0686 473.959 53.4805C473.96 53.972 473.832 54.3914 473.574 54.7387C473.319 55.0859 472.972 55.3269 472.532 55.4616L472.532 55.5298C473.084 55.6192 473.515 55.8525 473.825 56.2295C474.136 56.6036 474.292 57.0677 474.294 57.6217C474.295 58.0961 474.167 58.5226 473.909 58.9011C473.654 59.2768 473.306 59.5732 472.863 59.7903C472.421 60.0074 471.917 60.1167 471.351 60.1182ZM482.189 56.5619L483.197 56.5592L483.202 58.3472L482.194 58.3499L482.189 56.5619ZM486.924 50.0452L487.92 50.0425L487.949 60.8905L486.953 60.8931L486.924 50.0452ZM479.303 58.8496L479.169 58.022C481.221 58.0045 483.921 57.9732 486.26 57.667L486.334 58.3988C483.923 58.8132 481.307 58.8442 479.303 58.8496ZM479.379 51.3854L485.967 51.3677L485.969 52.1717L479.381 52.1894L479.379 51.3854ZM482.671 52.8046C484.231 52.8004 485.289 53.5896 485.292 54.8016C485.296 56.0256 484.242 56.8084 482.682 56.8126C481.134 56.8167 480.076 56.0395 480.072 54.8155C480.069 53.6035 481.123 52.8087 482.671 52.8046ZM482.673 53.5726C481.701 53.5752 481.018 54.069 481.02 54.813C481.022 55.557 481.708 56.0472 482.68 56.0446C483.664 56.0419 484.346 55.5481 484.344 54.8041C484.342 54.0601 483.657 53.5699 482.673 53.5726ZM482.172 50.0579L483.168 50.0552L483.172 51.8192L482.176 51.8219L482.172 50.0579ZM493.213 55.4884L494.209 55.4857L494.216 57.8977L493.22 57.9004L493.213 55.4884ZM498.011 50.0155L499.007 50.0128L499.029 58.2688L498.033 58.2715L498.011 50.0155ZM491.629 59.8246L499.297 59.8041L499.299 60.6201L491.631 60.6406L491.629 59.8246ZM491.623 57.4846L492.619 57.482L492.626 60.05L491.63 60.0526L491.623 57.4846ZM490.214 55.8684L490.08 55.0527C492.084 55.0474 494.772 55.0162 497.075 54.71L497.149 55.4418C494.81 55.8201 492.182 55.8631 490.214 55.8684ZM495.82 56.4294L498.28 56.4228L498.282 57.1548L495.822 57.1614L495.82 56.4294ZM493.596 50.4713C495.18 50.4671 496.262 51.2082 496.265 52.3482C496.268 53.5002 495.19 54.2471 493.606 54.2513C492.01 54.2556 490.928 53.5145 490.925 52.3625C490.922 51.2225 492 50.4756 493.596 50.4713ZM493.598 51.2153C492.578 51.2181 491.871 51.6639 491.873 52.3599C491.875 53.0559 492.584 53.498 493.604 53.4953C494.612 53.4926 495.319 53.0467 495.317 52.3507C495.315 51.6547 494.606 51.2126 493.598 51.2153ZM508.498 49.9755L509.506 49.9728L509.535 60.8327L508.527 60.8354L508.498 49.9755ZM509.242 54.3775L511.246 54.3721L511.248 55.2001L509.244 55.2055L509.242 54.3775ZM505.729 51.1589L506.701 51.1563C506.709 54.2403 505.301 57.028 501.801 58.8014L501.247 58.0349C504.243 56.5029 505.737 54.1829 505.729 51.3149L505.729 51.1589ZM501.733 51.1696L506.245 51.1575L506.247 51.9735L501.735 51.9856L501.733 51.1696ZM520.089 49.9564L521.097 49.9537L521.112 55.7737L520.104 55.7764L520.089 49.9564ZM514.118 56.3324L515.102 56.3298L515.105 57.6498L520.133 57.6363L520.13 56.3164L521.114 56.3137L521.126 60.6577L514.13 60.6764L514.118 56.3324ZM515.108 58.4418L515.111 59.8698L520.139 59.8563L520.136 58.4283L515.108 58.4418ZM515.278 50.4853C516.922 50.4809 518.101 51.4978 518.105 52.9738C518.109 54.4618 516.936 55.4849 515.292 55.4893C513.648 55.4937 512.457 54.4769 512.453 52.9889C512.449 51.5129 513.634 50.4897 515.278 50.4853ZM515.28 51.3133C514.2 51.3162 513.422 52.0023 513.425 52.9863C513.428 53.9703 514.209 54.6522 515.289 54.6493C516.369 54.6464 517.148 53.9603 517.145 52.9763C517.142 51.9923 516.36 51.3104 515.28 51.3133ZM529.427 54.4315L530.423 54.4288L530.427 56.0728L529.431 56.0755L529.427 54.4315ZM529.884 50.4222C531.456 50.418 532.562 51.2791 532.566 52.5631C532.569 53.8471 531.468 54.702 529.896 54.7062C528.336 54.7104 527.229 53.8613 527.226 52.5774C527.222 51.2934 528.324 50.4264 529.884 50.4222ZM529.886 51.1902C528.866 51.193 528.16 51.7589 528.162 52.5748C528.164 53.4028 528.874 53.9529 529.894 53.9502C530.926 53.9475 531.632 53.3936 531.63 52.5656C531.628 51.7496 530.918 51.1875 529.886 51.1902ZM534.023 49.9312L535.019 49.9285L535.041 58.2205L534.045 58.2231L534.023 49.9312ZM534.609 53.5896L536.613 53.5842L536.615 54.4122L534.611 54.4176L534.609 53.5896ZM528.181 59.7148L535.429 59.6954L535.431 60.5234L528.183 60.5428L528.181 59.7148ZM528.175 57.5308L529.171 57.5282L529.178 60.0722L528.182 60.0748L528.175 57.5308ZM526.745 56.6347L526.611 55.819C528.519 55.8139 531.159 55.7828 533.366 55.4409L533.44 56.1727C531.173 56.5988 528.605 56.6297 526.745 56.6347ZM540.411 56.2621L541.395 56.2595L541.402 58.9234L540.418 58.9261L540.411 56.2621ZM543.879 56.2288L544.851 56.2262L544.858 58.9022L543.886 58.9048L543.879 56.2288ZM537.681 58.5974L547.509 58.5711L547.511 59.3991L537.683 59.4254L537.681 58.5974ZM538.848 50.7102L546.276 50.6904L546.285 53.9664L539.877 53.9835L539.883 56.1675L538.899 56.1701L538.891 53.1941L545.299 53.177L545.294 51.497L538.85 51.5142L538.848 50.7102ZM538.897 55.7261L546.541 55.7057L546.544 56.5217L538.9 56.5421L538.897 55.7261Z" fill="#777777"/>
<rect x="497.464" y="0.5" width="11" height="7.98257" rx="1.5" stroke="#777777"/>
<rect x="501.464" y="2.49609" width="3" height="3.99032" stroke="#777777"/>
<rect x="492.464" y="11.4785" width="20.9984" height="14.969" stroke="#777777"/>
<rect x="491.964" y="27.9458" width="10" height="0.998063" fill="#777777"/>
<rect x="491.964" y="31.938" width="15.9988" height="0.998063" fill="#777777"/>
<rect x="498.964" y="35.9302" width="11" height="0.998063" fill="#777777"/>
<rect x="491.964" y="35.9302" width="6" height="0.998063" fill="#777777"/>
<rect x="502.964" y="27.9458" width="4" height="0.998063" fill="#777777"/>
<rect x="507.963" y="27.9458" width="3" height="0.998063" fill="#777777"/>
<mask id="path-22-inside-3_54972_26332" fill="white">
<path fill-rule="evenodd" clip-rule="evenodd" d="M521.032 26.2423C520.641 25.8522 520.007 25.8522 519.616 26.2423L514.692 31.1577L513.085 29.5542C512.694 29.164 512.06 29.164 511.669 29.5542L510.257 30.9643C509.866 31.3544 509.866 31.987 510.257 32.3771L513.599 35.7127C513.622 35.7358 513.646 35.7575 513.671 35.7779L514.695 36.8004L522.445 29.0654C522.835 28.6752 522.835 28.0426 522.445 27.6525L521.032 26.2423Z"/>
</mask>
<path d="M519.616 26.2423L520.323 26.9501L520.323 26.9501L519.616 26.2423ZM521.032 26.2423L521.738 25.5346L521.738 25.5346L521.032 26.2423ZM514.692 31.1577L513.985 31.8655L514.692 32.5706L515.398 31.8655L514.692 31.1577ZM513.085 29.5542L513.791 28.8464L513.085 29.5542ZM511.669 29.5542L510.963 28.8464L510.963 28.8464L511.669 29.5542ZM510.257 30.9643L510.963 31.6721H510.963L510.257 30.9643ZM510.257 32.3771L510.963 31.6693H510.963L510.257 32.3771ZM513.599 35.7127L512.892 36.4205L512.892 36.4205L513.599 35.7127ZM513.671 35.7779L514.377 35.0701L514.343 35.0362L514.306 35.0057L513.671 35.7779ZM514.695 36.8004L513.989 37.5082L514.695 38.2133L515.401 37.5082L514.695 36.8004ZM522.445 29.0654L523.151 29.7731L523.151 29.7731L522.445 29.0654ZM522.445 27.6525L523.151 26.9447V26.9447L522.445 27.6525ZM520.323 26.9501C520.324 26.9492 520.324 26.949 520.324 26.9493C520.323 26.9495 520.323 26.9497 520.323 26.9498C520.322 26.95 520.323 26.9497 520.324 26.9497C520.325 26.9497 520.326 26.95 520.325 26.9498C520.325 26.9497 520.325 26.9495 520.324 26.9493C520.324 26.949 520.324 26.9492 520.325 26.9501L521.738 25.5346C520.957 24.7548 519.691 24.7548 518.91 25.5346L520.323 26.9501ZM515.398 31.8655L520.323 26.9501L518.91 25.5346L513.985 30.4499L515.398 31.8655ZM512.379 30.262L513.985 31.8655L515.398 30.4499L513.791 28.8464L512.379 30.262ZM512.376 30.262C512.377 30.261 512.377 30.2609 512.377 30.2612C512.376 30.2614 512.376 30.2616 512.376 30.2617C512.375 30.2619 512.376 30.2616 512.377 30.2616C512.379 30.2616 512.379 30.2619 512.379 30.2617C512.378 30.2616 512.378 30.2614 512.378 30.2612C512.377 30.2609 512.378 30.261 512.379 30.262L513.791 28.8464C513.01 28.0666 511.744 28.0666 510.963 28.8464L512.376 30.262ZM510.963 31.6721L512.376 30.262L510.963 28.8464L509.55 30.2565L510.963 31.6721ZM510.963 31.6693C510.962 31.6684 510.962 31.6682 510.962 31.6687C510.963 31.6691 510.963 31.6697 510.963 31.6702C510.964 31.6712 510.963 31.6713 510.963 31.6707C510.963 31.6701 510.964 31.6702 510.963 31.6712C510.963 31.6717 510.963 31.6723 510.962 31.6727C510.962 31.6732 510.962 31.673 510.963 31.6721L509.55 30.2565C508.768 31.0373 508.768 32.3041 509.55 33.0849L510.963 31.6693ZM514.305 35.0049L510.963 31.6693L509.55 33.0849L512.892 36.4205L514.305 35.0049ZM514.306 35.0057C514.306 35.0057 514.306 35.0054 514.305 35.0049L512.892 36.4205C512.938 36.4662 512.986 36.5094 513.035 36.55L514.306 35.0057ZM515.401 36.0927L514.377 35.0701L512.964 36.4856L513.989 37.5082L515.401 36.0927ZM521.738 28.3576L513.989 36.0927L515.401 37.5082L523.151 29.7731L521.738 28.3576ZM521.738 28.3602C521.739 28.3612 521.739 28.3614 521.739 28.3609C521.738 28.3605 521.738 28.3599 521.738 28.3594C521.738 28.3584 521.738 28.3583 521.738 28.3589C521.738 28.3596 521.738 28.3595 521.738 28.3585C521.738 28.3579 521.738 28.3574 521.739 28.3569C521.739 28.3565 521.739 28.3567 521.738 28.3576L523.151 29.7731C523.933 28.9923 523.933 27.7256 523.151 26.9447L521.738 28.3602ZM520.325 26.9501L521.738 28.3602L523.151 26.9447L521.738 25.5346L520.325 26.9501Z" fill="#777777" mask="url(#path-22-inside-3_54972_26332)"/>
<path fill-rule="evenodd" clip-rule="evenodd" d="M490.965 3.65967H497.714V4.65967H490.965C489.86 4.65967 488.965 5.5551 488.965 6.65967V38.5861C488.965 39.6906 489.86 40.5861 490.965 40.5861H514.962C516.067 40.5861 516.962 39.6906 516.962 38.5861V33.713L517.962 32.7148V38.5861C517.962 40.2429 516.619 41.5861 514.962 41.5861H490.965C489.308 41.5861 487.965 40.2429 487.965 38.5861V6.65967C487.965 5.00282 489.308 3.65967 490.965 3.65967ZM517.962 28.4803V6.65967C517.962 5.00281 516.619 3.65967 514.962 3.65967H508.214V4.65967H514.962C516.067 4.65967 516.962 5.5551 516.962 6.65967V29.4784L517.962 28.4803Z" fill="#777777"/>
<rect x="500.464" y="14.4727" width="5" height="4.98838" rx="2.49419" stroke="#777777"/>
<path d="M498.464 22.9614C498.464 21.5807 499.583 20.4614 500.964 20.4614H504.964C506.345 20.4614 507.464 21.5807 507.464 22.9614V26.4479H498.464V22.9614Z" stroke="#777777"/>
<line x1="97.9929" y1="19.4614" x2="197.986" y2="19.4614" stroke="#777777"/>
<line x1="337.975" y1="19.4614" x2="437.968" y2="19.4614" stroke="#777777"/>
</svg>
