<svg width="180" height="180" viewBox="0 0 180 180" fill="none" xmlns="http://www.w3.org/2000/svg">
<rect width="180" height="180" rx="5" fill="#F3F3F3"/>
<path d="M61.3076 100.314H62.8016V116.622H61.3076V100.314ZM54.2156 101.574C56.6276 101.574 58.3556 103.788 58.3556 107.244C58.3556 110.718 56.6276 112.932 54.2156 112.932C51.8216 112.932 50.0936 110.718 50.0936 107.244C50.0936 103.788 51.8216 101.574 54.2156 101.574ZM54.2156 102.924C52.6316 102.924 51.5156 104.616 51.5156 107.244C51.5156 109.89 52.6316 111.618 54.2156 111.618C55.8176 111.618 56.9156 109.89 56.9156 107.244C56.9156 104.616 55.8176 102.924 54.2156 102.924ZM66.9762 101.916H74.4642V112.518H66.9762V101.916ZM73.0062 103.122H68.4342V111.312H73.0062V103.122ZM77.8662 100.314H79.3602V116.622H77.8662V100.314ZM86.9188 102.654H88.1248V105.3C88.1248 108.738 86.0548 112.194 83.4628 113.472L82.5988 112.284C84.9568 111.168 86.9188 108.108 86.9188 105.3V102.654ZM87.2068 102.654H88.4128V105.3C88.4128 108.054 90.3748 110.862 92.7688 111.888L91.9228 113.076C89.2948 111.852 87.2068 108.684 87.2068 105.3V102.654ZM83.1388 101.988H92.2288V103.248H83.1388V101.988ZM94.4248 100.332H95.9188V116.604H94.4248V100.332ZM99.1754 108.072H113.881V109.314H99.1754V108.072ZM101.029 105.318H112.171V106.524H101.029V105.318ZM101.029 100.98H112.045V102.204H102.505V105.894H101.029V100.98ZM106.501 110.718C109.975 110.718 112.081 111.78 112.081 113.652C112.081 115.524 109.975 116.568 106.501 116.568C103.027 116.568 100.921 115.524 100.921 113.652C100.921 111.78 103.027 110.718 106.501 110.718ZM106.501 111.87C103.963 111.87 102.433 112.518 102.433 113.652C102.433 114.768 103.963 115.398 106.501 115.398C109.057 115.398 110.569 114.768 110.569 113.652C110.569 112.518 109.057 111.87 106.501 111.87ZM115.716 109.278H130.476V110.502H115.716V109.278ZM117.588 100.746H128.568V104.688H119.1V106.884H117.624V103.59H127.11V101.916H117.588V100.746ZM117.624 106.398H128.928V107.568H117.624V106.398ZM122.34 107.01H123.834V109.89H122.34V107.01ZM117.354 111.744H128.676V116.46H127.182V112.968H117.354V111.744Z" fill="#777777"/>
<path fill-rule="evenodd" clip-rule="evenodd" d="M89.5996 60.4849C85.733 60.4849 82.5996 63.9332 82.5996 68.1886C82.5996 72.4429 85.733 75.8923 89.5996 75.8923C93.4654 75.8923 96.5996 72.4429 96.5996 68.1886C96.5996 63.9342 93.4654 60.4849 89.5996 60.4849ZM93.5852 71.9489C91.6987 74.3718 88.3851 74.652 86.1836 72.5749C83.9812 70.4987 83.7275 66.851 85.6149 64.4292C87.5005 62.0054 90.815 61.7261 93.0165 63.8032C95.2171 65.8784 95.4717 69.5271 93.5852 71.9489Z" fill="#777777"/>
<path fill-rule="evenodd" clip-rule="evenodd" d="M89.5996 64.3369C87.6667 64.3369 86.1005 66.0616 86.0996 68.1878V68.1897C86.0996 68.4545 86.2956 68.6712 86.5371 68.6712C86.7786 68.6712 86.9746 68.4545 86.9746 68.1897V68.1878C86.9755 66.5931 88.1497 65.2999 89.5996 65.2999C89.8411 65.2999 90.0371 65.0842 90.0371 64.8184C90.0371 64.5526 89.8411 64.3369 89.5996 64.3369Z" fill="#777777"/>
<path fill-rule="evenodd" clip-rule="evenodd" d="M101.405 59.5614L97.6129 58.8652L96.4115 55.5583C96.0099 54.4558 95.0526 53.7432 93.9746 53.7432H85.2246C84.1466 53.7432 83.1894 54.4558 82.7869 55.5593L81.5864 58.8652L77.795 59.5614C76.5227 59.7935 75.5996 60.9914 75.5996 62.4098V76.8543C75.5996 78.447 76.7774 79.7432 78.2246 79.7432H100.975C102.422 79.7432 103.6 78.447 103.6 76.8543V62.4098C103.6 60.9914 102.676 59.7935 101.405 59.5614ZM101.85 76.8543C101.85 77.3868 101.458 77.8172 100.975 77.8172H78.2246C77.7407 77.8172 77.3496 77.3868 77.3496 76.8543V62.4098C77.3496 61.9389 77.6594 61.5374 78.0811 61.4603L82.8446 60.5869L84.4117 56.2748C84.5456 55.9098 84.8667 55.6691 85.2246 55.6691H93.9746C94.3316 55.6691 94.6527 55.9089 94.7866 56.2748L96.3537 60.5869L101.118 61.4603C101.54 61.5374 101.85 61.9389 101.85 62.4098V76.8543Z" fill="#777777"/>
</svg>
