<svg width="230" height="230" viewBox="0 0 230 230" fill="none" xmlns="http://www.w3.org/2000/svg">
<rect x="0.5" y="0.5" width="229" height="229" rx="114.5" fill="#F2F2FF" stroke="#2C39B5"/>
<path d="M53.3603 104.788C54.3723 108.468 60.2603 127.144 76.3603 127.144C92.4603 127.144 98.7163 108.192 99.8203 104.42C103.96 104.052 107.456 101.108 108.836 96.8759C110.032 92.8279 108.928 88.7799 105.984 86.3879C106.076 83.6279 105.984 70.9319 97.8883 62.3759C93.1043 57.2239 86.3883 54.6479 77.9243 54.6479C68.4483 54.6479 61.0883 57.4079 56.0283 62.9279C48.8523 70.6559 48.4843 81.2359 48.5763 84.3639C46.4603 84.9159 45.0803 87.2159 44.8963 90.6199C44.3443 95.6799 46.9203 103.592 53.3603 104.788ZM57.2243 64.1239C61.9163 59.0639 68.8163 56.4879 77.7403 56.4879C85.6523 56.4879 91.9083 58.8799 96.3243 63.5719C103.132 70.7479 103.868 81.6039 103.868 85.3759C102.12 84.5479 98.8083 82.7079 94.8523 79.7639C90.8963 76.7279 86.9403 75.8079 85.1923 77.5559C84.5483 78.2919 83.8123 79.8559 85.7443 82.9839C82.9843 82.0639 78.5683 80.2239 75.8083 79.1199C73.5083 78.1999 71.7603 77.4639 70.8403 77.1879C60.5363 73.5079 52.7163 80.0399 50.2323 82.7999C50.2323 79.3039 50.9683 70.8399 57.2243 64.1239ZM46.4603 89.9759C46.5523 87.6759 47.3803 85.5599 49.3123 85.5599H49.6803C50.0483 85.5599 50.6003 85.4679 50.8763 85.0999C51.2443 84.6399 59.0643 74.6119 70.3803 78.4759C71.2083 78.7519 73.0483 79.6719 75.1643 80.5919C81.6963 83.2599 86.3883 85.2839 87.9523 85.2839H88.0443L89.8843 85.1919L88.7803 83.7199C86.5723 81.0519 86.1123 79.3039 86.6643 78.7519C87.4003 78.0159 90.3443 78.4759 93.8403 81.1439C99.3603 85.2839 103.592 87.2159 104.42 87.5839C106.996 89.4239 108.008 92.8279 106.996 96.3239C106.168 99.1759 103.5 102.58 99.0843 102.672H98.3483L98.1643 103.408C98.0723 103.592 92.7363 125.396 76.3603 125.396C60.1683 125.396 55.1083 104.052 55.0163 103.868L54.8323 103.224L54.1883 102.764C48.7603 102.12 46.1843 94.7599 46.4603 89.9759Z" fill="#2C39B5"/>
<path d="M197.432 145.912C201.94 132.112 192.28 123.832 189.98 122.176C190.256 119.6 190.716 108.928 181.056 100.188C184.736 96.3241 186.3 85.1921 182.988 74.3361C180.412 65.8721 172.868 51.7041 151.8 51.7041C141.68 51.7041 133.86 54.8321 128.616 60.9961C119.416 71.7601 121.072 88.1361 121.532 91.4481C120.704 92.1841 118.864 93.8401 117.3 96.6921C115.46 100.004 113.712 105.616 115.736 113.436C108.192 119.324 104.696 126.316 105.432 134.32C100.188 131.836 95.9562 130.732 95.4962 130.64L95.2202 130.18L93.2882 126.868L92.1842 125.028L90.5282 126.132C88.0442 128.248 85.2842 129.812 82.5242 130.732H81.3282H72.7722H71.5762C68.8162 129.812 66.0562 128.248 63.5722 126.132L61.9162 124.844L60.8122 126.776L58.8802 130.088L58.6962 130.364C53.9122 131.744 26.2202 140.944 26.2202 162.748C26.2202 163.3 26.5882 163.668 27.1402 163.668C27.6922 163.668 28.0602 163.3 28.0602 162.748C28.0602 142.6 53.7282 133.768 58.9722 132.204C60.0762 134.136 64.4002 141.22 68.8162 141.864L70.3802 142.14L70.8402 140.576L71.6682 137.816C71.9442 138.46 72.3122 139.104 72.7722 139.656L69.9202 168.268L69.8282 168.912L70.1962 169.464L75.4402 177.744L77.0042 180.228L78.5682 177.652L83.5362 169.372L83.8122 168.82L83.7202 168.176L81.0522 139.564C81.5122 139.012 81.8802 138.368 82.1562 137.724L82.9842 140.484L83.4442 142.048L85.0082 141.772C89.2402 141.128 93.5642 134.32 94.7602 132.204C96.1402 132.572 125.948 140.76 125.948 162.656C125.948 163.208 126.316 163.576 126.868 163.576C127.42 163.576 127.788 163.208 127.788 162.656C127.788 150.88 119.876 142.968 111.872 137.816C113.988 137.172 116.196 136.62 118.312 136.068C123.096 134.872 127.512 133.676 131.192 131.56C132.112 133.216 138.92 144.9 145.36 145.912L146.924 146.188L147.384 144.624L150.696 133.584L150.88 133.032L151.064 133.584L154.376 144.624L154.836 146.188L156.4 145.912C162.288 144.992 168.636 134.964 170.292 132.112C170.384 132.112 170.476 132.204 170.568 132.204C170.844 132.296 201.848 140.3 201.848 162.656C201.848 163.208 202.216 163.576 202.768 163.576C203.32 163.576 203.688 163.208 203.688 162.656C203.872 155.94 201.204 150.42 197.432 145.912ZM70.7482 134.228L69.0002 140.116C65.4122 139.564 61.1802 132.48 60.4442 131.284C60.4442 131.192 60.4442 131.008 60.4442 130.916L62.2842 127.788C64.8602 129.996 67.7122 131.1 70.8402 132.02C70.7482 132.48 70.7482 133.4 70.7482 133.86C70.6562 133.952 70.7482 134.044 70.7482 134.228ZM79.3042 139.012L82.0642 168.36L77.0962 176.64L71.8522 168.36L74.6122 139.012C73.5082 138 72.7722 136.344 72.6802 134.412L73.0482 132.848L73.2322 132.48H80.8682L81.0522 132.848L81.4202 134.228C81.1442 136.16 80.4082 138 79.3042 139.012ZM84.9162 140.116L83.1682 134.228C83.1682 134.136 83.1682 134.044 83.1682 133.86C83.1682 133.4 83.1682 133.032 83.0762 132.572C86.1122 131.652 88.9642 129.996 91.6322 127.788L93.5642 131.1C93.5642 131.1 88.7802 139.472 84.9162 140.116ZM145.82 144.164C140.024 143.244 132.94 130.732 132.94 130.732L135.884 125.764C139.932 129.168 144.44 131.744 149.224 133.124L145.82 144.164ZM156.4 144.164L153.088 133.124C157.872 131.744 162.38 129.26 166.428 125.764L169.372 130.732C169.28 130.64 162.196 143.244 156.4 144.164ZM195.96 144.348C186.852 134.964 172.868 131.008 171.304 130.548L170.844 129.72L167.9 124.752L166.796 122.912L165.14 124.292C161.184 127.604 156.952 129.996 152.536 131.284L151.156 131.652L149.776 131.284C145.36 129.996 141.128 127.604 137.172 124.292L135.516 122.912L134.412 124.752L131.468 129.72C131.284 129.72 131.1 129.72 130.916 129.812C127.42 131.928 122.912 133.124 118.128 134.32C115.46 134.964 112.7 135.7 110.124 136.62C109.204 136.068 108.284 135.608 107.456 135.148C106.352 127.052 109.664 120.336 117.484 114.448L117.76 114.08L117.576 113.436C113.712 99.0841 122.636 92.7361 123.004 92.4601L123.464 92.0921L123.372 91.5401C123.372 91.3561 120.52 73.1401 129.996 62.0081C134.872 56.3041 142.232 53.3601 151.8 53.3601C171.764 53.3601 178.848 66.7921 181.24 74.7041C184.46 85.2841 182.712 96.7841 179.124 99.2681L178.112 99.9121L179.032 100.74C189.888 110.032 188.048 122.176 188.048 122.268L187.956 122.82L188.416 123.188C188.968 123.648 199.732 130.824 195.96 144.348Z" fill="#2C39B5"/>
<path d="M94.3003 162.472V165.048V173.512C94.3003 175.72 95.9563 175.72 98.2563 175.72H111.504C113.712 175.72 116.472 175.812 116.472 173.512V165.048V162.472V157.32H94.3923V162.472H94.3003ZM96.1403 159.16H114.54V161.92H96.1403V159.16ZM96.1403 163.76H114.54V173.512C114.54 174.708 112.7 173.88 111.412 173.88H98.2563C97.0603 173.88 96.1403 174.8 96.1403 173.512V163.76Z" fill="#2C39B5"/>
<path d="M151.432 110.952C145.912 110.952 144.256 113.896 144.164 113.988L143.98 114.356L144.072 114.724C144.072 114.908 145.268 118.772 151.34 118.772C157.32 118.772 159.16 115.092 159.252 114.908L159.528 114.356L159.16 113.896C159.16 113.804 156.86 110.952 151.432 110.952ZM151.432 116.932C147.752 116.932 146.464 115.368 146.096 114.632C146.648 114.08 148.12 112.792 151.432 112.792C154.652 112.792 156.492 113.896 157.32 114.632C156.676 115.46 155.02 116.932 151.432 116.932Z" fill="#2C39B5"/>
<path d="M173.604 90.896L173.512 90.16H172.684C172.5 90.16 151.892 90.804 133.86 76.636L132.572 76.084L132.388 76.912C131.468 83.996 128.524 90.16 126.868 93.104L126.684 93.472L126.776 93.84C128.524 102.212 131.836 110.584 135.884 116.656C140.576 123.832 146.004 127.604 151.432 127.604C161.92 127.604 170.844 113.344 174.984 99.176L175.076 98.9L174.984 98.256C174.156 95.496 173.696 91.54 173.604 90.896ZM151.524 125.764C141.128 125.764 132.02 109.388 128.708 93.748C130.364 90.804 132.94 85.284 134.044 78.844C150.42 91.08 167.992 92.46 171.948 92.644C172.132 93.932 172.592 96.6 173.328 98.9C169.188 112.332 161 125.764 151.524 125.764Z" fill="#2C39B5"/>
</svg>
